<?xml version="1.0" standalone="no"?><!DOCTYPE svg PUBLIC "-//W3C//DTD SVG 1.1//EN" "http://www.w3.org/Graphics/SVG/1.1/DTD/svg11.dtd" ><svg xmlns="http://www.w3.org/2000/svg"><metadata></metadata><defs><font id="woziku-jjstz-CN4262" horiz-adv-x="257"><font-face font-family="woziku-jjstz-CN4262" font-weight="400" font-stretch="normal" units-per-em="256" panose-1="3 0 5 9 0 0 0 0 0 0" ascent="221" descent="-61" x-height="0" bbox="-12 -62 268 211" underline-thickness="12" underline-position="-49" unicode-range="U+0000-ff1f" /><missing-glyph horiz-adv-x="256" d="M45 158 l2 0 q4 0 5 -10 q-4 -25 -13 -46 q-6 -16 -14 -63 l-2 0 q-3 0 -3 3 l0 2 q0 11 10 60 q7 17 12 50 q1 4 3 4 ZM20 10 q14 -5 14 -17 q-2 -7 -7 -7 q-10 0 -11 20 q0 4 4 4 Z" /><glyph glyph-name="" unicode=" " d="M45 158 l2 0 q4 0 5 -10 q-4 -25 -13 -46 q-6 -16 -14 -63 l-2 0 q-3 0 -3 3 l0 2 q0 11 10 60 q7 17 12 50 q1 4 3 4 ZM20 10 q14 -5 14 -17 q-2 -7 -7 -7 q-10 0 -11 20 q0 4 4 4 Z" /><glyph glyph-name="" unicode="a" d="M71 153 l2 0 q9 -6 18 -37 q17 -62 17 -117 q-1 0 -1 -1 q-6 0 -8 24 q-8 53 -20 97 q-11 23 -11 30 q1 4 3 4 ZM67 137 q2 0 4 -4 q-18 -38 -26 -50 l-7 -18 l0 1 l1 0 q17 3 46 6 q5 -1 5 -3 l0 -1 q0 -3 -18 -5 q-23 -8 -38 -8 q-3 -2 -15 -33 q0 -4 -10 -23 l-1 0 q-2 0 -3 4 q2 14 9 31 l43 92 q4 9 10 11 Z" /><glyph glyph-name="" unicode="h" d="M96 154 l1 0 q4 0 5 -21 q-2 -50 -8 -93 q-3 -28 -3 -30 l0 -10 l-1 -4 l-3 0 q-2 5 -2 16 q6 95 6 113 q0 29 3 29 q1 0 2 0 ZM17 132 q4 -1 4 -5 q0 -15 -2 -41 l0 0 q0 -4 1 -4 q16 4 31 4 l11 0 q11 0 15 -4 q0 -4 -6 -4 q-15 0 -40 -5 q-13 0 -13 -4 q-2 -25 -7 -57 l-3 0 q-3 6 -3 12 l6 86 q0 22 5 22 l1 0 Z" /><glyph glyph-name="" unicode="p" d="M48 156 l8 0 q23 0 38 -23 q4 -6 6 -21 l0 -3 q0 -19 -20 -34 q-22 -17 -39 -23 q-17 -6 -18 -8 q-1 0 -1 -2 l0 -4 q-5 -57 -12 -57 l-2 0 l-1 4 l5 51 l0 6 q0 4 -6 11 q0 0 -1 0 q2 5 4 5 l3 0 l0 74 q0 3 0 6 q15 18 36 18 ZM23 115 l0 -48 q0 -10 1 -10 l1 0 q23 4 52 28 q11 11 11 25 l0 1 q0 22 -19 31 q-6 2 -17 2 q-24 0 -28 -11 q-1 -11 -1 -18 Z" /><glyph glyph-name="" unicode="s" d="M63 145 q16 0 22 -11 l0 -1 q0 -2 -4 -4 q-12 5 -21 5 q-21 0 -34 -14 q-2 -3 -2 -6 l0 -3 q0 -13 53 -52 q19 -16 19 -26 q0 -16 -42 -38 q-12 -4 -16 -4 l-5 0 q-13 0 -20 13 q-6 15 -8 20 q2 5 4 5 l0 0 q3 0 6 -13 q9 -15 21 -15 l2 0 q23 0 42 28 q1 4 1 5 l0 2 q0 12 -39 38 q-32 24 -32 36 l0 3 q0 16 36 29 q10 3 17 3 Z" /><glyph glyph-name="" unicode="a" d="M50 96 q7 0 11 -10 q-1 -5 -6 -5 l-5 2 l-4 0 q-12 0 -25 -26 q-1 -4 -1 -7 l0 -1 q0 -15 7 -24 l2 0 q10 7 17 21 q11 16 16 35 q6 8 10 8 q5 -2 5 -7 q0 -2 -9 -19 q-2 -5 -2 -10 l0 -12 q0 -6 5 -14 q7 -4 3 -11 q-21 13 -21 23 l-1 0 l0 0 q-9 -21 -13 -22 q-5 -4 -11 -6 q-13 0 -19 26 q0 2 -1 8 q0 26 31 48 q9 3 11 3 Z" /><glyph glyph-name="" unicode="e" d="M51 122 q16 -5 16 -17 l0 -2 q0 -24 -29 -39 q-6 -1 -14 -3 q-6 2 -6 4 l0 2 q1 3 23 14 q12 10 12 19 l0 4 q0 1 -3 3 l-5 0 q-9 0 -20 -16 q-9 -17 -9 -26 l0 -6 q0 -19 23 -23 l4 0 q13 0 33 10 l4 0 q0 -1 1 -3 q0 -3 -18 -10 q-17 -9 -23 -9 l-4 0 q-25 0 -31 32 l0 8 q0 24 22 47 q13 11 24 11 Z" /><glyph glyph-name="" unicode="o" d="M59 98 q16 0 18 -21 l0 -6 q0 -22 -21 -46 q-11 -7 -20 -8 l-3 0 q-23 0 -27 36 q0 2 -1 9 q0 10 11 23 l3 1 q2 0 4 -4 q-8 -16 -8 -31 q0 -16 18 -21 q19 0 30 29 q3 7 3 15 l0 0 q-1 9 -6 9 l-5 0 q-5 0 -25 -9 l-3 3 q0 6 26 20 q5 1 6 1 Z" /><glyph glyph-name="" unicode="r" d="M10 101 l0 0 q10 0 13 -33 l-1 0 l9 17 q14 14 26 15 q0 -1 1 -1 q0 -3 -14 -15 q-13 -22 -13 -23 q-5 -20 -5 -45 q-2 -5 -9 -5 q-6 2 -6 10 q3 18 3 25 l0 4 q0 27 -8 47 q2 4 4 4 Z" /><glyph glyph-name="" unicode="s" d="M41 105 q18 -2 18 -10 q0 -3 -4 -4 q-7 1 -12 1 q-22 -3 -22 -11 q0 -4 29 -28 q22 -19 22 -26 q0 -13 -36 -13 q-2 -1 -9 -1 q-22 5 -22 11 q1 3 2 3 q2 0 9 -2 l9 0 q16 0 32 6 l0 0 q-17 20 -38 32 q-12 8 -12 17 l0 2 q0 8 9 10 q12 5 23 13 q1 0 2 0 Z" /><glyph glyph-name="" unicode="y" d="M90 124 q8 -1 8 -8 q-13 -22 -18 -52 q0 -11 -11 -41 q-15 -23 -38 -23 q-18 0 -26 13 l0 3 q1 0 2 1 q13 -5 19 -5 l8 0 q25 0 34 39 q3 14 3 18 l1 0 q-14 -19 -23 -19 q-5 0 -5 7 q1 47 7 47 l2 0 q3 -2 3 -5 q0 -5 -2 -24 l0 -10 l0 0 q17 16 22 31 q5 28 14 28 Z" /><glyph glyph-name="" unicode="&#x201c;" d="M191 134 q-15 3 -18 11 l-1 0 q-4 16 10 37 q3 16 9 17 l1 -2 q-2 -11 -7 -28 q-1 -17 0 -20 l1 -3 q1 -1 8 -6 q1 -3 -3 -6 ZM219 143 q-15 2 -18 9 l-1 0 q-4 13 10 30 q3 13 9 14 l1 -1 q-2 -10 -7 -23 q-1 -14 0 -16 l1 -3 q1 -1 8 -5 q1 -2 -3 -5 Z" /><glyph glyph-name="" unicode="&#x201d;" d="M61 196 q15 -3 18 -11 l0 0 q4 -16 -9 -38 q-5 -15 -10 -16 l-1 2 q2 11 8 27 q1 18 0 20 l-2 4 q0 1 -7 6 q-1 3 3 6 ZM33 193 q15 -3 18 -10 l0 0 q4 -13 -9 -30 q-5 -13 -10 -14 l-1 2 q2 9 8 22 q1 15 0 17 l-2 3 q0 1 -7 5 q-1 2 3 5 Z" /><glyph glyph-name="" unicode="&#x4e0d;" d="M182 166 q4 -1 6 -3 q0 -5 -12 -5 q-25 -15 -84 -30 q-7 -1 -11 -1 q-9 2 -9 5 l0 2 q0 4 23 5 q20 5 83 26 l4 1 ZM133 135 q2 0 5 -4 q0 -10 -71 -88 q-18 -20 -20 -20 l-2 0 l0 3 q0 2 57 69 l28 38 l3 2 ZM137 105 q13 -6 13 -30 l0 -15 q0 -10 -3 -55 q0 -2 1 -8 q-2 -13 -8 -13 l-1 0 q-5 0 -7 18 q0 1 6 46 l0 15 q0 15 -6 36 q0 4 5 6 ZM167 88 l3 0 q13 0 37 -10 q3 0 5 -4 l0 -2 q-2 0 -2 -1 q-23 3 -49 6 q-10 3 -10 6 l0 1 q1 4 16 4 Z" /><glyph glyph-name="" unicode="&#x4e16;" d="M196 159 q3 0 5 -10 q-1 -2 -1 -2 q0 -7 -4 -32 q2 0 27 6 l4 -2 q0 -5 -20 -8 q-16 -3 -16 -12 q-11 -23 -28 -52 l-1 -2 l0 -1 l0 0 q21 -2 21 -6 q0 -3 -23 -9 q-12 0 -17 9 q1 4 16 22 q16 23 22 43 l0 0 q-1 0 -1 0 l-50 -14 l-1 -1 q0 -5 9 -32 q-1 -4 -4 -4 q-13 7 -13 31 q-1 3 0 3 q-31 -9 -38 -14 q6 -35 16 -64 q5 -4 14 -4 q54 0 105 7 q1 -1 3 -1 l0 -3 q0 -3 -35 -7 q0 -2 -64 -7 q0 0 -7 -1 q-22 0 -25 9 q-5 6 -12 55 q-1 0 -4 13 l1 0 q-33 -8 -40 -8 l-1 0 q-3 0 -6 4 l0 2 q0 5 31 8 q12 3 13 4 q-5 34 -5 43 q0 5 4 8 q7 0 9 -48 l0 -1 q39 11 39 18 l0 1 q-3 33 -3 35 q1 8 5 8 q5 0 5 -27 q2 -17 3 -18 q13 0 55 16 q7 15 7 41 q3 4 5 4 Z" /><glyph glyph-name="" unicode="&#x4e2a;" d="M148 184 q2 0 2 -2 l0 -3 q-10 -18 -86 -139 l-19 -31 l-2 -2 l-2 0 q0 2 -1 3 q13 28 50 86 q48 79 55 88 l3 0 ZM145 152 l1 0 q7 0 26 -17 q18 -15 44 -25 q0 -1 2 -1 l-4 -4 q-29 0 -70 39 q-1 3 -2 3 q2 5 3 5 ZM148 94 q5 -1 5 -9 q-5 -85 -12 -101 q-1 -17 -5 -17 l-2 0 q-1 5 -1 9 l0 9 q0 13 5 51 q3 50 6 54 q0 2 4 4 Z" /><glyph glyph-name="" unicode="&#x4e3a;" d="M161 192 l2 0 q1 0 4 -4 q0 -2 -24 -51 q-3 -6 -3 -5 l1 0 q29 15 47 15 q12 0 21 -11 q7 -12 7 -24 l0 -7 q0 -42 -31 -90 q-29 -34 -47 -34 l-2 0 q-11 2 -11 6 q0 2 0 3 l3 0 q2 0 5 -2 l0 0 q26 7 45 33 q29 42 29 78 l0 7 q0 22 -13 29 q-6 2 -9 2 l-5 0 q-15 0 -47 -19 q-46 -80 -73 -133 q-4 -4 -16 -25 l-2 -1 l0 0 q-3 0 -3 3 q35 68 61 113 q19 34 19 35 l0 0 q-2 0 -43 -27 q-1 -1 -3 -1 l-1 0 q-2 0 -2 2 l0 1 q7 9 33 25 q29 15 29 25 q1 1 17 38 q8 15 12 19 ZM110 176 q5 -1 5 -6 l0 -11 q-5 -28 -10 -28 q-3 3 -3 10 q0 35 7 35 l1 0 ZM148 70 q32 -3 37 -9 l0 -3 l-4 -1 q-10 2 -30 2 l-2 0 q-10 0 -13 5 l0 1 q0 4 12 5 Z" /><glyph glyph-name="" unicode="&#x4e48;" d="M125 164 q1 0 3 -2 l0 -1 q-3 -13 -27 -47 q-6 -14 -18 -30 q-6 -12 -11 -12 q0 1 -1 1 q9 25 30 55 q3 7 11 22 q8 14 13 14 ZM143 105 l4 -1 l0 -2 q0 -4 -35 -53 q-18 -22 -19 -27 l0 -1 l0 0 q5 0 45 22 q13 7 16 7 q0 -2 1 -2 q0 -3 -11 -11 q-5 -9 -51 -30 q-2 -1 -10 -3 q-10 1 -10 7 q0 5 26 35 q31 45 44 59 ZM181 85 q3 0 4 -6 q0 -21 -15 -66 l-9 -26 q-1 0 -3 -1 l-2 3 q0 3 8 29 q6 37 12 63 q1 4 5 4 Z" /><glyph glyph-name="" unicode="&#x4e5f;" d="M168 185 q3 0 3 -4 l0 -1 q0 -7 -7 -27 l0 0 q8 4 18 4 q6 0 9 -4 q0 -3 -12 -4 q-21 -7 -21 -14 q0 -1 -17 -51 q-7 -13 -10 -13 l-2 3 l19 59 q-13 -3 -50 -36 q-6 -8 -10 -34 q-2 -18 -2 -26 l0 -16 q0 -32 22 -43 q7 -1 11 -1 q37 0 91 71 q6 5 7 5 l3 0 l0 -1 q0 -6 -39 -49 q-31 -31 -42 -33 q-7 -3 -25 -5 q-11 0 -26 14 q-11 17 -11 43 l0 2 q0 24 8 63 l0 0 q-3 0 -42 -38 l-2 -2 l-2 0 q-2 0 -2 2 l0 3 q22 26 50 48 q3 8 21 60 q5 12 10 19 l2 0 q2 0 3 -4 q-12 -31 -23 -66 l0 1 l-1 0 q22 17 53 36 q9 32 12 37 q0 2 4 2 ZM204 151 q2 0 5 -4 q-2 -16 -25 -73 q-16 -35 -26 -41 q-5 -1 -9 -1 l0 0 q-11 0 -13 16 q2 8 4 8 l2 0 q3 -1 7 -9 l4 0 q9 7 19 24 q20 45 23 66 q5 14 9 14 Z" /><glyph glyph-name="" unicode="&#x4eba;" d="M135 163 q4 -1 4 -5 q0 -10 -16 -46 q-33 -94 -52 -110 q-4 -9 -12 -16 l-3 0 l0 2 q0 2 20 35 q7 13 27 64 q8 23 18 46 q8 30 14 30 ZM134 77 l1 0 q8 0 27 -27 q16 -16 32 -31 q3 -4 6 -9 q0 -3 -4 -5 q-12 2 -24 14 q-8 8 -26 31 q-6 0 -15 24 q1 3 3 3 Z" /><glyph glyph-name="" unicode="&#x4ec0;" d="M165 187 l2 0 q4 -1 4 -8 l0 -8 q0 -23 -2 -51 l0 -8 l0 0 q26 11 52 23 l4 0 q3 -1 5 -4 l0 -2 q-3 -6 -45 -20 q0 -1 -14 -6 q-4 0 -7 -15 l-9 -120 q-1 -5 -1 -6 l-5 0 q0 1 0 1 q0 11 0 16 l0 53 q6 55 6 61 l1 0 q-3 0 -40 -22 q-2 0 -4 5 q9 12 35 24 q9 3 9 11 q2 15 2 53 q3 23 7 23 ZM87 142 q1 0 4 -3 q-4 -8 -29 -44 q-22 -33 -30 -48 l-3 -3 q-2 0 -4 3 q13 30 54 88 l8 7 ZM87 92 q5 -1 5 -9 q-4 -16 -4 -26 q-1 -3 -3 -25 q-4 -1 -6 -1 q-8 0 -8 10 q6 32 14 48 q2 1 2 3 Z" /><glyph glyph-name="" unicode="&#x4ed6;" d="M133 175 q3 -1 3 -3 q0 -3 -17 -69 q-2 -14 -3 -25 q0 0 18 13 q17 8 17 12 q3 18 8 18 q4 -1 4 -6 l0 0 q0 -3 -2 -11 l0 1 q18 6 24 6 q11 0 11 -10 l0 -2 q0 -12 -16 -65 q-6 -7 -10 -7 q-4 2 -4 6 q0 2 9 24 q6 24 6 36 l0 1 q0 3 -1 5 q-23 -6 -23 -9 q-7 -27 -13 -37 q-2 -5 -4 -5 l-1 0 q-3 0 -3 7 q0 4 9 30 l0 0 l1 0 q-30 -18 -30 -28 q-1 -9 -1 -12 q0 -43 7 -51 q7 -7 18 -7 q33 0 69 50 q10 16 17 39 l2 1 l3 0 l1 -3 l-12 -39 q-16 -25 -51 -50 q-20 -10 -35 -10 l0 0 q-25 7 -25 22 q-1 0 -4 60 q-2 0 -2 5 q3 5 6 33 q6 35 20 79 q2 1 4 1 ZM81 135 q1 0 4 -3 q-12 -26 -38 -71 q-10 -19 -19 -40 l-4 0 q0 2 0 3 q7 26 33 73 q19 38 23 38 l1 0 ZM74 77 l1 0 q5 0 5 -5 q-4 -36 -4 -54 l0 -6 q0 -14 -7 -14 q-5 0 -7 17 q7 62 12 62 Z" /><glyph glyph-name="" unicode="&#x4ee5;" d="M169 155 q5 -2 5 -9 l0 -8 q0 -27 -17 -73 q-3 -4 -14 -32 q-15 -23 -18 -25 q-10 -5 -13 -5 l-1 0 q0 1 -2 1 q16 17 21 29 q13 12 20 45 q12 34 12 54 q1 23 7 23 ZM104 93 q2 0 9 -10 q4 -2 4 -6 l0 0 q0 -3 -7 -5 q-12 4 -12 12 l0 2 q2 7 6 7 ZM52 89 q4 0 4 -24 q4 -44 8 -44 q10 7 21 24 q8 17 12 20 q1 0 3 -3 q-4 -11 -13 -30 q-11 -27 -25 -27 q-10 0 -13 40 q-3 15 -3 24 l0 11 q0 9 6 9 ZM180 53 q8 0 16 -25 q10 -18 13 -28 q-1 -4 -3 -4 q-7 0 -21 21 q-9 23 -9 31 q0 3 4 5 Z" /><glyph glyph-name="" unicode="&#x4eec;" d="M206 177 q10 0 12 -17 l-1 -6 l0 -16 q2 -78 2 -91 l0 -1 q0 -17 -7 -37 q0 -12 -21 -32 q-4 -3 -9 -4 q-17 3 -17 17 q-5 21 -6 30 q0 4 2 4 l3 0 q4 -20 14 -32 l3 -2 l4 0 q11 6 22 40 q1 7 1 15 l0 17 q-3 100 -7 100 q-1 0 -1 0 q-2 0 -34 -14 l-5 -1 q-4 2 -5 4 l0 3 q0 6 42 22 q5 0 8 1 ZM97 152 q5 -2 5 -6 q-1 -13 -24 -42 q-7 -10 -21 -27 q-12 -18 -17 -21 l-3 0 l0 2 q0 4 14 25 q0 5 20 30 q15 25 20 36 q3 3 6 3 ZM130 123 l6 0 q11 0 14 -7 q-1 -6 -8 -6 l-1 0 q-13 0 -17 9 q1 4 6 4 ZM94 87 q7 0 7 -14 l0 -31 q0 -3 0 -8 q-1 -6 -7 -9 q-6 0 -8 16 q3 19 3 37 q2 9 5 9 ZM130 74 q4 0 5 -6 q-3 -26 -8 -36 q0 -1 -2 -3 l-2 0 q-3 0 -4 8 q3 37 11 37 Z" /><glyph glyph-name="" unicode="&#x4f1a;" d="M167 189 l2 0 q2 0 3 -3 q0 -4 -24 -30 q-41 -56 -69 -124 q-10 -15 -13 -23 l-4 0 q0 1 -1 2 q2 9 33 71 q18 36 46 76 q17 23 27 31 ZM151 152 q19 -6 31 -26 q8 -13 13 -27 q-1 -2 -1 -3 l-3 0 q-18 24 -33 38 q-10 7 -13 12 l0 2 q0 2 6 4 ZM162 97 q10 -2 10 -6 l0 -1 q-4 -9 -31 -10 l-2 0 q-4 0 -6 3 q0 5 29 14 ZM181 61 l1 0 l0 -3 q-5 -6 -27 -17 q-4 0 -10 -11 q-14 -16 -30 -46 l0 -1 l0 0 q9 6 40 26 q11 9 17 9 q0 -1 1 -1 q-3 -14 -39 -35 q-24 -21 -34 -21 q-8 2 -8 8 q0 4 23 33 q7 16 20 30 l0 0 q-3 0 -33 -14 q-4 2 -4 3 l0 2 q7 9 45 23 q12 6 32 13 q1 2 6 2 ZM181 33 q8 -3 8 -26 q-1 -15 -1 -36 q0 -4 -5 -4 q-4 8 -6 37 l0 21 q0 5 4 8 Z" /><glyph glyph-name="" unicode="&#x4f46;" d="M83 153 l2 0 q4 -3 4 -9 q0 -15 -64 -98 q-3 1 -3 4 q6 18 14 25 q29 38 37 55 q3 8 7 21 l3 2 ZM175 138 l4 0 q12 0 14 -19 q0 -13 -13 -68 q-4 -6 -7 -7 l-2 0 q-3 1 -3 4 l0 2 l1 6 q-1 0 -1 0 q-20 -13 -29 -13 q-8 0 -11 6 l-3 -2 l0 0 q-7 2 -7 10 q1 20 6 48 l0 1 q0 0 -6 -2 q-4 0 -5 4 q1 5 34 21 q21 9 28 9 ZM130 109 q3 -4 3 -9 q-1 -10 -3 -27 l0 -3 q0 -12 2 -14 q11 6 25 20 q5 5 5 5 q0 0 0 0 q-5 0 -23 -4 l-4 -1 q-4 1 -4 4 q0 8 40 15 l1 0 l5 -1 q3 7 3 13 l0 7 q0 10 -7 10 l-3 0 q-16 0 -40 -15 l0 0 ZM73 82 q8 0 8 -41 l0 -20 q0 -24 -4 -24 l-3 0 q-4 24 -4 27 l0 12 q0 10 -2 35 l0 4 q0 5 5 7 ZM160 61 l1 0 q10 0 12 13 q-2 0 -12 -12 q-1 -1 -1 -1 ZM232 41 q1 -1 3 -1 l0 -2 q0 -4 -27 -10 q-20 -8 -79 -21 q-3 -1 -16 -4 q-4 1 -6 4 q0 7 50 17 q18 4 55 12 q1 1 20 5 Z" /><glyph glyph-name="" unicode="&#x4f60;" d="M139 178 q3 0 4 -4 l-20 -47 q-1 -4 -1 -5 l0 -3 l0 0 q8 0 73 42 q14 7 18 7 q6 0 9 -11 q-5 -12 -23 -36 q-7 -12 -15 -31 l-2 -1 l-2 0 q0 1 -1 2 q0 10 16 41 q10 15 10 22 q-10 0 -78 -48 q-2 -2 -8 -3 q-11 0 -11 9 q0 8 24 59 q4 7 7 7 ZM84 147 q5 -2 5 -8 q0 -23 -50 -115 l-13 -16 l-4 0 q0 2 -1 2 l33 66 q16 30 19 47 q7 22 8 23 q2 1 3 1 ZM158 111 q9 0 10 -53 q1 -37 1 -70 q-2 -16 -11 -16 l-6 0 q-12 0 -15 33 q1 5 3 5 l2 0 q2 0 4 -10 q8 -11 10 -12 q3 0 3 30 q-3 69 -5 87 l0 0 q0 5 4 6 ZM78 72 q6 0 6 -8 l0 -40 q0 -2 3 -6 q0 -1 0 -3 q-2 -13 -10 -13 q-5 0 -5 13 l0 0 q1 35 1 39 l0 8 q0 7 5 10 ZM203 64 q8 -1 19 -21 q2 -2 12 -17 q-1 -2 -1 -3 l-2 0 l-20 22 q-7 5 -11 15 q0 1 3 4 ZM120 57 q4 -2 4 -5 q-5 -34 -10 -44 q-3 -7 -5 -7 l0 0 q-2 0 -3 5 q5 51 14 51 Z" /><glyph glyph-name="" unicode="&#x4fe1;" d="M170 177 q8 0 18 -15 q1 -3 1 -5 q0 -5 -5 -8 q-3 0 -8 9 q-9 8 -9 15 l0 1 q0 2 3 3 ZM198 145 q8 -1 8 -7 q0 -4 -18 -6 q-41 -11 -46 -11 q-1 0 -4 3 q0 7 43 16 q13 5 17 5 ZM94 137 q2 -1 3 -4 q-1 -9 -41 -50 q-22 -29 -28 -29 l-1 2 q0 4 56 69 q5 8 11 12 ZM208 114 q1 -1 3 -1 l0 -2 q-4 -7 -39 -18 q-8 -5 -16 -5 q-2 0 -4 3 q0 6 24 13 q10 5 32 10 ZM220 92 q5 0 8 -5 l0 -2 q0 -3 -25 -9 q-70 -27 -76 -27 q-3 0 -4 4 q0 4 28 13 q61 26 69 26 ZM94 86 l2 0 q3 0 4 -7 l0 -5 l-5 -79 q-2 -6 -4 -6 q-6 2 -6 10 q5 67 5 75 q0 12 4 12 ZM203 33 q9 -5 9 -14 q0 -20 -35 -42 q-10 -3 -12 -3 l-5 0 q-13 0 -20 19 l-1 7 q0 14 13 30 q1 0 3 1 q3 0 5 -4 q-8 -15 -8 -24 l0 -2 q0 -12 13 -14 l1 0 q20 0 34 27 q0 2 0 5 q0 3 -5 4 q-4 0 -22 -10 l-2 0 l0 4 q19 16 32 16 Z" /><glyph glyph-name="" unicode="&#x5047;" d="M80 175 q8 -6 8 -15 q0 -6 -53 -94 q-11 -16 -16 -16 l0 4 q24 37 33 56 q23 35 23 55 l0 6 q0 4 5 4 ZM212 174 q5 0 7 -7 q0 -11 -17 -28 l-11 -14 l0 0 l-1 0 q2 0 26 15 l3 0 q5 0 6 -7 q0 -6 -16 -10 q-23 -14 -37 -21 q-7 0 -8 8 q0 2 22 25 q15 20 15 22 l0 0 q0 0 -17 -8 q-3 0 -5 4 q8 10 26 20 q4 1 7 1 ZM146 142 q12 -2 12 -7 l0 -2 q0 -14 -21 -26 q-19 -17 -19 -18 l0 0 q11 2 37 22 q2 -1 3 -1 q0 -7 -27 -25 q-6 -6 -21 -14 q-2 -4 -2 -15 l0 0 q21 17 35 18 q3 0 4 -3 q0 -3 -12 -6 q-27 -17 -28 -24 q-2 0 -4 -39 q-2 -7 -6 -7 q-5 0 -6 11 q8 45 8 66 q-4 4 -4 7 l7 10 q0 27 7 27 q4 0 4 -7 q0 -2 -1 -12 q12 5 30 31 l0 1 q0 0 0 0 q-5 0 -29 -12 q-2 0 -3 0 q-3 0 -5 2 q0 9 38 21 q3 0 3 2 ZM217 106 q8 0 8 -9 q-3 -8 -22 -39 q-10 -19 -12 -24 q0 -5 47 -55 l0 -3 q-1 0 -1 -1 q-17 8 -31 23 q-17 22 -22 25 q-23 -30 -32 -30 q0 0 -1 0 q-10 2 -10 4 l0 1 q0 2 9 4 q18 13 27 31 q0 2 -14 25 q0 0 0 1 q0 3 4 5 q3 0 16 -18 l1 0 q4 0 12 19 q4 6 9 24 l0 0 q-4 0 -32 -21 q-5 -3 -8 -5 q-1 0 -4 4 q17 18 41 33 q8 6 15 6 ZM73 81 q6 -1 6 -6 l0 -12 q-5 -31 -5 -62 l0 -6 q0 -17 -6 -17 q-7 2 -7 13 l9 89 q2 0 3 1 ZM140 48 q2 -1 3 -1 l0 -1 q0 -5 -24 -23 q-1 0 -4 3 q0 5 16 15 l9 7 Z" /><glyph glyph-name="" unicode="&#x505a;" d="M199 182 q4 0 4 -4 q0 -8 -24 -53 q-4 -19 -7 -20 l-2 0 l-1 4 l0 2 q9 35 21 56 q5 15 9 15 ZM131 155 l2 0 q2 0 4 -3 l0 -3 q0 -8 -14 -43 l0 1 l1 0 q1 0 23 13 q1 0 4 1 l1 -2 l0 -1 q0 -2 -31 -23 q-5 -7 -8 -33 q-2 -6 -2 -9 l1 0 q1 0 20 11 q10 5 14 5 l2 0 q6 0 8 -11 q-3 -13 -11 -25 l0 1 l-1 0 q6 4 8 4 l1 -2 l0 -2 q-19 -18 -22 -24 q-12 -9 -15 -9 l-3 3 q0 4 19 21 q9 19 9 24 l0 6 l-1 0 q-15 -2 -40 -25 q-2 -2 -2 -4 l0 -7 q0 -4 3 -17 q0 -3 -4 -4 q-7 0 -12 27 q1 11 8 11 q12 9 12 21 q4 28 4 30 l1 0 q-5 -3 -6 -3 q-5 0 -5 4 q1 3 14 12 q11 32 15 51 q0 3 3 4 ZM82 152 q3 0 4 -4 q-5 -14 -28 -47 q-18 -26 -33 -51 l-3 -2 l-3 0 l0 3 q11 22 45 73 q16 28 17 28 l1 0 ZM223 144 l4 0 l0 -3 q-33 -30 -38 -32 q-2 0 -5 3 q7 11 18 18 l21 14 ZM223 119 q4 -1 4 -3 l0 -3 q0 -10 -28 -66 q-1 -3 -1 -4 q5 -19 37 -65 q1 -4 2 -4 q-1 -2 -1 -4 l-3 0 q-1 0 -17 23 q-16 21 -25 38 l1 0 q-2 0 -14 -19 q-19 -27 -41 -44 l-4 0 q0 5 22 25 q27 35 30 47 l0 1 q0 3 -17 37 l-2 7 q0 3 4 5 q5 0 19 -30 q4 -6 4 -6 q8 21 13 30 q12 35 17 35 ZM60 93 l2 0 q6 0 6 -14 q0 -14 -9 -74 q-1 -13 -2 -17 l-4 0 q-1 5 -1 9 l0 7 q0 13 5 86 l3 3 Z" /><glyph glyph-name="" unicode="&#x522b;" d="M201 190 q4 0 6 -12 l0 -2 q-4 -31 -9 -119 q-4 -49 -4 -75 l0 -18 l-1 -4 l-2 0 q-4 0 -4 10 l0 23 q0 30 6 130 q0 26 4 64 q2 3 4 3 ZM109 175 q11 0 11 -11 q0 -6 -11 -21 q-2 -1 -14 -17 l0 0 l-1 0 l17 6 q1 0 3 0 l0 -3 q0 -2 -20 -14 q-13 -12 -20 -14 q-7 3 -7 9 q0 3 8 9 l0 0 q0 2 -9 22 q-2 8 -3 17 q1 4 2 4 q10 0 16 -37 l0 -1 q2 0 19 26 q3 7 3 9 l0 1 q-1 0 -1 0 q-20 -9 -25 -9 q-4 2 -4 4 l0 0 q0 7 18 13 q8 6 18 7 ZM124 111 q13 -3 13 -24 q-20 -96 -20 -98 q-4 -11 -10 -11 q-14 4 -14 18 q0 4 -2 7 q5 31 14 39 l3 0 l0 -1 q0 -3 -6 -20 l0 -3 q0 -14 4 -21 q5 4 10 38 q8 42 8 50 l0 3 q0 10 -5 10 l-2 0 q-12 0 -18 -16 q-25 -42 -41 -71 l-3 -2 l-2 0 l0 2 q0 5 32 65 q5 6 5 9 l1 0 q-12 -7 -35 -29 q-2 -1 -2 -2 q-3 0 -5 4 q4 11 30 30 q32 23 45 23 ZM167 90 q3 -1 3 -4 l0 -2 q-7 -41 -11 -41 l-1 0 q-2 0 -2 4 l0 3 q5 40 11 40 Z" /><glyph glyph-name="" unicode="&#x53c8;" d="M136 157 q11 0 13 -15 q0 -9 -17 -39 l-20 -36 l0 -1 q0 -4 23 -21 q21 -18 48 -34 q13 -6 22 -15 l0 -3 l-3 0 q-40 21 -59 35 q-34 27 -38 28 q-2 -1 -22 -29 q-1 0 -26 -28 l-2 -1 l-2 0 l-2 1 q5 8 29 37 q15 19 15 25 l0 1 q0 7 -31 35 q-13 12 -13 17 l0 1 q0 1 2 3 l2 0 q5 0 35 -32 q14 -15 14 -15 q11 10 28 57 q2 3 2 7 l0 4 q0 2 -2 3 l-3 0 q-5 0 -49 -23 q-4 -2 -8 -2 q-2 0 -3 2 q0 4 33 21 q26 17 34 17 Z" /><glyph glyph-name="" unicode="&#x53ef;" d="M196 176 l4 -1 l0 -3 q0 -1 -13 -6 q-4 -3 -38 -10 q-82 -27 -90 -27 q-4 2 -4 4 l0 1 q0 3 28 11 q50 18 92 27 q13 4 21 4 ZM155 143 l3 0 q3 -1 3 -6 l0 -1 q0 -26 -6 -112 q0 -4 0 -17 q0 -18 0 -23 q0 -8 -10 -10 q-9 0 -12 15 q-2 0 -4 13 l0 3 q0 5 2 6 l2 0 q2 0 4 -9 q4 -7 6 -8 l0 0 q4 2 7 110 q-1 1 -1 1 q-43 -32 -59 -46 q-4 -6 -10 -7 q-13 5 -24 28 q-1 5 -1 6 q0 4 3 4 q5 -1 17 -25 q1 0 1 0 q17 11 28 37 l0 -1 l1 0 q-2 0 -30 -11 q-3 0 -5 3 q9 14 42 24 l2 0 q9 -2 9 -9 q0 -6 -18 -27 l0 0 l-1 0 q34 22 43 31 q2 2 4 26 q2 5 4 5 Z" /><glyph glyph-name="" unicode="&#x540e;" d="M180 178 q0 -2 2 -2 q0 -5 -28 -11 l-49 -17 q-3 -1 -5 -1 q-4 0 -5 4 q0 5 41 15 q35 12 44 12 ZM168 142 q1 -1 2 -1 l0 -3 q-3 -4 -32 -14 q-15 -8 -32 -14 q-9 -7 -26 -66 q-10 -25 -16 -55 q-4 -14 -6 -18 q-4 1 -4 6 q11 53 26 94 q7 17 10 30 l0 0 q-17 -9 -21 -9 q-1 0 -3 2 l0 2 q5 5 28 18 q3 5 9 22 l3 2 q4 -1 4 -5 q-3 -11 -3 -13 l0 1 q6 0 51 18 q7 3 10 3 ZM178 91 q9 -3 9 -9 q0 -9 -14 -33 l-24 -31 l0 1 q3 0 49 16 q1 0 3 0 l0 -4 q-2 -2 -32 -14 q-2 0 -39 -19 l-2 0 q-5 1 -5 4 l0 0 l1 -7 l0 -1 q0 -4 -3 -5 q-4 0 -9 42 l0 26 q0 1 0 2 q2 7 7 11 l3 -2 q26 14 36 18 q7 2 20 5 ZM122 43 l0 -27 q0 -6 0 -6 q0 1 19 14 q32 33 32 54 q0 0 -1 0 q-31 -6 -48 -20 q-2 -5 -2 -15 Z" /><glyph glyph-name="" unicode="&#x5462;" d="M176 181 q7 0 9 -9 q-2 -9 -29 -27 q-8 -5 -8 -5 q1 0 1 0 q31 10 45 13 q4 -1 4 -3 l0 -1 q-3 -5 -27 -13 q-2 0 -31 -12 q-14 0 -14 -6 q-16 -43 -52 -126 q-4 -9 -8 -24 l-2 0 q-1 0 -3 3 q2 19 44 114 q12 31 19 57 q0 2 3 4 l2 0 q2 0 3 -6 l1 0 q21 12 33 28 l0 0 l-1 0 q-26 -8 -37 -10 q-3 1 -4 3 q0 8 45 18 q4 2 7 2 ZM77 132 q10 -2 10 -11 q0 -9 -9 -28 l0 -1 l0 0 q3 1 23 15 q1 -1 3 -1 l0 -2 q0 -3 -17 -17 q-4 -8 -15 -11 q-3 -2 -5 -2 q-6 0 -6 7 q0 2 7 13 q5 10 5 20 l0 1 q0 2 -1 3 l-2 0 q-3 0 -22 -11 q-3 0 -5 4 q0 7 26 19 q1 0 8 2 ZM147 109 q3 0 5 -4 q-4 -12 -17 -32 q-10 -22 -10 -42 l0 -1 q0 -14 22 -19 q7 -1 10 -1 q28 0 51 15 q4 3 4 6 l0 8 q0 10 -9 19 q1 1 1 3 q8 0 19 -14 q2 -5 2 -8 l0 -3 q0 -16 -14 -22 q-34 -13 -56 -13 l-10 0 q-31 3 -31 25 l0 4 q2 31 26 70 q5 8 7 9 ZM36 106 q4 -2 11 -26 l12 -16 l0 -3 q-2 -6 -6 -6 q-11 0 -22 47 q1 4 5 4 ZM194 89 q0 -2 1 -2 q-6 -12 -24 -20 q-21 -14 -30 -14 q0 2 -1 2 q0 5 27 20 q7 8 27 14 Z" /><glyph glyph-name="" unicode="&#x5728;" d="M122 175 q4 0 5 -7 l0 0 q0 -8 -11 -26 l0 0 q43 18 66 23 q0 0 10 3 q3 -1 3 -3 l0 0 q0 -4 -24 -10 q-29 -14 -64 -27 q-12 -14 -49 -74 q-25 -52 -43 -79 l-4 -1 q0 2 -1 3 q1 3 39 75 q19 34 44 70 l0 0 l1 0 q-19 -9 -35 -13 q-5 1 -5 4 q0 7 35 18 q13 4 16 12 q10 22 13 30 l4 2 ZM159 116 l2 0 q7 0 7 -20 l0 -2 q0 -13 0 -13 q3 0 24 19 l2 1 q4 -2 4 -4 l0 -3 q0 -8 -20 -18 q-16 -7 -16 -24 q-8 -27 -17 -37 q-4 -10 -6 -10 l-3 0 q0 1 -1 1 q9 21 17 55 q-1 0 -1 0 q-1 0 -44 -25 q-1 0 -4 -1 q-2 0 -5 3 q0 5 35 24 q20 10 20 11 q4 43 6 43 ZM83 80 q8 0 10 -19 l0 -1 q0 -14 -7 -49 q0 -3 -5 -28 l-1 -4 l-4 0 l-2 7 q2 24 7 57 l0 12 q-2 15 -3 20 q1 5 5 5 ZM242 29 q4 -1 4 -3 l0 -2 q-2 -3 -38 -10 q-32 -12 -67 -21 q-29 -13 -34 -13 q-6 1 -6 3 l0 2 q18 16 141 44 Z" /><glyph glyph-name="" unicode="&#x575b;" d="M134 177 q13 -4 29 -4 q11 1 18 1 q6 2 18 3 q7 -2 7 -7 q-7 0 -26 -7 q-3 -1 -14 -1 l-6 0 q-22 0 -31 9 l0 2 q0 2 5 4 ZM213 151 l1 -2 l0 -2 q-2 -2 -20 -12 q-26 -15 -37 -20 q-4 -2 -7 -2 l-2 0 q-1 0 -3 3 l0 2 q3 2 27 15 q18 12 30 13 q5 5 11 5 ZM82 147 q5 0 6 -10 l0 -7 q0 -8 -2 -23 l-1 0 q11 9 28 18 l3 0 q0 -1 1 -1 q0 -3 -13 -13 q-8 -8 -22 -16 q-1 0 -3 -53 l0 0 q3 0 30 31 l4 0 l0 -2 q0 -3 -20 -28 q-14 -29 -23 -29 q-6 2 -6 8 l0 1 q7 39 7 59 l0 5 q0 0 -12 -8 q-11 -5 -15 -5 q-4 1 -4 4 q0 7 33 21 q3 30 6 45 l3 3 ZM170 108 l1 0 q2 0 3 -4 q-6 -14 -34 -55 l-12 -23 q-3 -8 -3 -10 l0 1 l0 0 q23 13 69 47 q1 0 1 1 q-2 16 -2 21 q1 8 4 8 l2 0 q5 0 7 -22 l0 0 q2 2 5 2 l2 0 l0 -3 q-6 -6 -6 -9 q5 -60 9 -85 q-1 -4 -4 -4 q-4 0 -6 29 q-10 52 -10 54 l1 0 q-18 -15 -49 -37 q-28 -28 -34 -28 l-1 0 q-6 0 -8 10 q0 7 20 40 q6 11 37 59 q4 8 8 8 Z" /><glyph glyph-name="" unicode="&#x591a;" d="M157 209 q2 0 3 -3 q-3 -9 -35 -36 l0 0 l-1 0 q35 17 42 17 l1 0 q5 0 9 -8 q0 -12 -39 -62 q-19 -29 -42 -57 q-4 -2 -6 -2 l-3 0 q-3 0 -3 2 l0 2 q28 28 40 49 q1 1 1 2 q-6 -1 -7 -1 q-15 1 -15 5 l0 1 q1 3 5 3 q7 -2 10 -2 l6 0 q4 0 4 -2 l0 0 q34 44 34 55 l0 3 l0 0 q-25 -3 -64 -33 q-10 -12 -17 -12 q-4 0 -6 6 q0 6 18 16 q24 20 63 57 l2 0 ZM208 129 q6 0 7 -9 q0 -10 -19 -33 q-24 -33 -25 -42 q5 -2 5 -4 q0 -3 -10 -4 q-17 -31 -38 -56 q-26 -26 -40 -32 q-13 -5 -43 -9 q-4 1 -4 3 q0 5 28 7 q17 3 45 28 q32 34 43 60 l0 2 q0 0 -2 1 l-3 0 q-5 0 -5 -2 q-13 4 -45 6 l-2 4 q0 10 11 16 q14 11 60 55 q2 0 2 2 l5 -4 l-6 -9 l0 1 q24 17 36 19 ZM118 55 l0 -1 q0 -1 29 -5 q3 -1 10 -2 q8 0 23 33 q19 28 19 35 l0 0 q-9 0 -63 -42 q-14 -12 -18 -18 Z" /><glyph glyph-name="" unicode="&#x5979;" d="M167 178 q2 0 4 -4 q-23 -74 -23 -85 l-1 0 q26 14 34 22 q2 9 4 33 q2 6 6 6 l1 0 q3 0 3 -8 q0 -2 -2 -21 l0 -5 q0 0 17 11 q18 9 23 9 q5 0 8 -11 q-4 -20 -36 -70 q-4 -6 -10 -6 q-3 1 -4 4 q32 42 35 68 l0 1 l-1 0 l-5 0 q-10 -4 -29 -16 l0 -1 l0 -7 q-4 -53 -11 -53 l-2 0 q-3 0 -3 6 l0 2 q6 30 6 45 l0 2 l1 0 q-6 0 -35 -24 q-2 -6 -2 -10 l0 -8 q0 -36 28 -63 q16 -12 29 -12 l2 0 q21 0 42 51 q5 20 5 29 q2 5 4 7 q4 -1 4 -5 l0 -1 q-15 -92 -55 -92 q-28 0 -56 40 q-11 25 -11 46 q0 5 0 11 l0 2 l0 0 q-9 -8 -16 -11 q-2 0 -5 3 q3 7 18 17 q5 0 6 13 q20 85 27 85 ZM76 168 q5 -1 5 -5 q0 -3 -23 -99 l0 -3 l0 0 q11 9 29 21 q11 7 11 20 q2 10 2 27 l0 2 q0 10 5 10 q4 0 4 -10 q-1 -26 -2 -36 l-1 0 l22 12 q1 -1 2 -1 l0 -2 q-4 -5 -23 -17 q-3 -6 -17 -58 q-5 -11 -5 -12 q1 -2 22 -18 q18 -12 25 -21 l0 -2 q0 -3 -3 -3 q-11 0 -38 26 q-9 7 -11 7 q-3 0 -12 -12 q-11 -12 -17 -12 l-2 0 q0 2 0 3 q0 2 9 9 q14 18 14 21 q0 0 -13 11 l-11 13 l-1 0 q-4 0 -44 -37 l-3 0 l-1 0 q-2 0 -2 2 q0 4 36 36 q13 9 13 18 q10 28 27 108 q3 1 3 2 ZM59 50 l0 -2 q16 -25 19 -25 q8 17 17 55 l0 1 q-11 -5 -35 -27 q-1 0 -1 -2 Z" /><glyph glyph-name="" unicode="&#x597d;" d="M90 174 q4 -2 4 -6 q0 -14 -35 -83 q-12 -18 -12 -20 l1 0 q28 17 46 26 q3 5 10 33 l3 3 q3 0 5 -5 q-2 -11 -6 -26 l-1 0 q2 0 19 8 q5 2 8 2 q3 0 3 -2 l0 0 q0 -3 -24 -13 q-11 -5 -14 -18 q-9 -24 -21 -46 q-5 -7 -5 -8 q25 -26 33 -30 q2 0 10 -9 l0 -3 q-3 -1 -4 -1 q-10 0 -20 14 q-16 10 -25 18 l-1 0 l-18 -12 l-2 0 q-3 0 -3 3 l0 1 q14 12 14 12 l0 1 q0 4 -22 14 q-8 7 -8 13 l0 0 q-2 0 -31 -20 l-4 0 l-2 3 q0 3 27 21 q20 12 20 17 q45 75 51 110 l4 3 ZM189 174 q8 0 9 -10 q-2 -12 -25 -35 q-17 -25 -20 -36 l0 -3 q0 -4 24 -17 q9 -10 14 -10 q39 3 76 9 q0 -2 1 -2 q0 -5 -21 -8 q-17 -3 -42 -6 q-10 -1 -10 -2 l0 -1 q7 -10 7 -20 l0 -6 q0 -28 -28 -49 q-5 -2 -9 -2 l-3 0 q-23 0 -31 22 q-2 10 -2 15 q2 3 3 3 l1 0 q3 -2 5 -18 q12 -10 22 -10 l3 0 q18 0 27 32 q0 4 0 8 l0 2 q0 15 -8 21 l-2 0 q-29 -6 -81 -13 l-1 0 q-4 0 -6 3 l0 2 q0 4 62 12 q2 1 21 4 l0 0 q-4 5 -24 14 q-12 7 -12 15 q0 8 34 53 q9 15 9 19 q-2 1 -3 1 q-7 0 -34 -6 q-5 0 -5 5 q0 4 22 9 q19 5 27 5 ZM39 42 l0 -1 q8 -9 24 -17 l0 0 q2 0 19 34 l9 22 l0 0 q-35 -16 -50 -32 q-2 -4 -2 -6 Z" /><glyph glyph-name="" unicode="&#x5982;" d="M108 170 q5 -2 5 -7 q-3 -22 -10 -44 q-26 -53 -26 -61 l2 0 q39 18 39 20 q3 10 13 55 l2 2 l2 0 q2 0 3 -5 q0 -6 -10 -49 l0 0 q19 8 23 8 q0 -2 1 -2 q0 -4 -21 -12 q-5 0 -20 -38 q-5 -8 -5 -13 l0 -2 q4 -4 26 -23 q5 -5 9 -16 l0 -1 q0 -2 -2 -2 l-1 0 q-7 0 -21 16 q-16 16 -20 16 q-15 -17 -20 -19 q-1 1 -3 1 q0 3 12 18 l4 5 l0 1 q-1 2 -15 6 q-8 5 -15 14 l-1 0 q-2 0 -30 -19 q-4 -2 -7 -2 l0 0 q-2 0 -2 2 l0 2 q17 16 41 28 q38 78 38 92 q3 11 6 29 q1 0 3 0 ZM216 91 q15 0 19 -15 q-9 -22 -23 -43 q-7 -12 -7 -14 q1 0 1 0 q9 0 27 5 l1 0 q2 0 2 -3 q0 -4 -39 -13 q-4 0 -6 6 q3 9 12 23 q16 26 16 36 l0 2 q-1 3 -4 3 l-5 0 q-13 0 -32 -10 q-1 0 -4 3 q0 8 26 17 q4 2 16 3 ZM162 75 l0 0 q5 0 5 -37 q6 -5 6 -14 q-2 -8 -8 -8 q-9 0 -9 18 l0 33 q0 8 6 8 ZM75 44 q3 -7 20 -15 l1 -1 q3 0 18 39 l0 0 l1 0 q-34 -16 -40 -23 Z" /><glyph glyph-name="" unicode="&#x5b50;" d="M144 176 q6 0 6 -7 q0 -5 -14 -22 q-6 -11 -6 -15 q0 -2 11 -26 q5 -20 7 -20 l2 0 l81 4 q4 -1 4 -3 l0 -2 q-25 -4 -64 -6 q0 0 -20 -2 l-1 0 q0 0 0 0 q7 -24 10 -54 q0 -16 -14 -31 q-9 -4 -26 -15 q-5 -2 -11 -3 q-15 0 -18 23 l-5 14 q1 1 1 2 l3 0 q4 -3 11 -27 q2 -2 6 -2 l2 0 q19 0 36 26 q4 8 4 17 l0 5 q0 18 -8 44 q-1 0 -1 0 l-71 -7 q-29 -2 -44 -5 q-2 0 -5 3 q0 10 56 12 q62 4 62 6 l0 0 q-6 16 -14 30 q-4 5 -4 12 l0 4 q0 8 12 32 q0 0 0 0 q-26 -6 -35 -6 l-8 0 q-3 0 -5 3 q0 5 27 8 q30 8 33 8 Z" /><glyph glyph-name="" unicode="&#x5b83;" d="M113 188 q23 -5 38 -19 q3 -2 3 -9 l-2 -2 q-8 6 -9 6 q-15 9 -34 18 l-1 1 l0 2 q2 3 5 3 ZM154 140 q7 0 7 -7 q-2 -9 -20 -37 q-8 -16 -12 -19 l-1 0 q-2 0 -2 2 q0 4 15 31 q4 11 4 16 l1 0 q-31 -10 -56 -33 q-6 -6 -6 -9 l0 -3 q5 -6 5 -8 l0 -3 q-4 -5 -9 -5 q-14 4 -14 14 l0 1 q0 2 3 9 q0 3 -10 29 l0 4 q0 5 5 5 q4 0 7 -20 q4 -10 5 -10 q17 13 67 38 q5 5 11 5 ZM180 117 q10 -2 16 -38 q0 -8 1 -18 q0 -48 -33 -85 q-17 -15 -42 -15 q-20 0 -40 12 q-11 13 -11 21 q8 41 24 54 q0 1 3 1 q1 0 3 -2 l0 -2 l-15 -29 q-3 -8 -3 -14 l0 -4 q0 -19 31 -26 q3 -2 7 -2 l2 0 q40 0 60 54 q5 18 5 32 l0 18 q0 23 -11 40 l0 1 q0 2 3 2 ZM152 63 q4 0 4 -2 l0 -1 q0 -5 -38 -40 q-13 -13 -18 -13 q0 2 -1 2 q0 3 14 15 q31 37 39 39 Z" /><glyph glyph-name="" unicode="&#x5b9a;" d="M122 193 l2 0 q12 -12 19 -31 q4 -6 4 -7 q-1 -3 -4 -4 q-5 4 -19 24 q-5 10 -5 15 q2 3 3 3 ZM59 149 q6 0 12 -44 q1 0 2 -8 l0 -3 l-1 -5 l-3 0 q-1 2 -8 16 q-2 0 -7 37 q0 4 5 7 ZM134 147 q9 -1 9 -8 q0 -7 -15 -30 q-3 -4 -5 -14 q-8 -9 -12 -17 q-5 0 -5 -5 q-3 -11 -5 -52 q-1 0 -1 -3 q19 -18 71 -28 q23 -6 47 -10 q9 -3 9 -5 q0 -1 -3 -3 q-73 11 -106 23 l-17 8 q0 0 0 0 q0 0 -5 -1 q-8 11 -10 11 q-16 12 -20 19 q1 4 4 4 q6 -1 20 -12 l1 0 q0 0 0 1 l0 4 q1 26 1 29 l0 20 q-4 0 -46 -26 q0 -1 -12 -7 q-3 0 -4 4 q0 3 40 26 q12 9 23 14 q0 4 11 11 q16 6 16 11 q8 17 8 22 l0 2 l-1 0 q-6 0 -41 -15 q-2 0 -5 4 q0 6 49 22 q1 0 4 1 ZM166 74 q2 0 2 -2 l0 -1 q0 -3 -34 -18 q-12 -5 -18 -7 q-3 1 -5 3 q0 7 44 23 q8 2 11 2 ZM64 59 q4 -1 4 -6 q0 -14 -22 -81 q-6 -12 -11 -16 l-3 0 l0 2 l13 38 q12 50 16 62 q1 0 3 1 Z" /><glyph glyph-name="" unicode="&#x5c31;" d="M59 175 l0 0 q14 -1 38 -23 l0 -1 q-2 -3 -5 -3 q-18 3 -25 11 q-9 9 -10 12 l0 2 q0 2 2 2 ZM165 173 q2 0 5 -3 q-6 -17 -27 -69 q-1 -1 -1 -1 l0 0 q21 12 51 35 q2 0 3 0 l0 -2 q-3 -13 -40 -34 q-18 -10 -22 -22 q-8 -18 -23 -83 q-2 -9 -4 -9 l-3 0 l-1 3 q5 21 5 29 l0 1 q-15 20 -15 28 q1 2 3 3 q6 0 14 -22 l0 0 q1 0 10 35 q1 1 7 20 q-2 1 -3 5 q7 6 17 30 q19 49 22 55 q1 0 2 1 ZM113 155 l0 -3 q-3 -3 -29 -19 q-49 -32 -57 -32 l-3 -1 q-2 0 -5 4 q0 5 27 17 q20 10 58 31 q6 3 9 3 ZM199 154 l2 0 q11 -8 14 -16 l12 -16 l0 -3 l-4 0 q-27 28 -27 32 q1 3 3 3 ZM99 122 q5 0 9 -8 q0 -7 -37 -41 q0 -1 0 -1 l-1 0 q18 8 28 15 l4 0 l0 -2 q0 -2 -20 -16 q-22 -18 -25 -18 q-4 0 -4 -1 q-6 0 -8 5 q0 5 6 9 l0 1 q-2 2 -2 7 q0 13 7 19 q6 0 6 -11 q0 -3 -1 -5 q1 0 1 0 q25 25 25 29 q-5 1 -5 3 l0 2 q6 9 17 13 ZM159 88 q4 -2 4 -4 l0 -3 q0 -3 -10 -42 q-1 -11 -1 -15 q0 -25 19 -36 l5 0 l5 0 q22 0 40 33 q6 13 6 26 q0 9 -13 17 q-3 2 -15 3 q-6 -1 -10 -1 q-1 1 -3 1 l0 2 q0 3 21 6 q25 -4 25 -11 q5 -6 5 -12 l0 -8 q0 -19 -20 -49 q-20 -20 -43 -20 q-24 0 -31 34 q-1 8 -1 16 q0 21 11 54 q2 9 6 9 ZM80 62 q7 0 7 -23 q3 -24 3 -34 l0 -2 q0 -21 -6 -21 q-2 -1 -4 -1 q-10 0 -10 16 q-2 8 -7 25 l0 2 l3 0 q3 -2 10 -14 l0 0 q1 0 1 10 l0 37 q0 4 3 5 ZM35 49 l1 0 q5 -3 5 -13 q-6 -32 -10 -32 l-1 0 q-2 10 -2 16 l0 5 q2 24 7 24 Z" /><glyph glyph-name="" unicode="&#x5df1;" d="M139 160 q6 -3 6 -7 l0 -2 q0 -4 -12 -14 q-11 -7 -37 -32 l0 0 l34 7 l1 0 q3 0 3 -2 l0 -1 q0 -2 -16 -7 q-5 -3 -38 -15 q-5 2 -5 2 q0 -3 -11 -21 q-7 -12 -7 -23 l0 -2 q0 -31 48 -41 l10 0 q26 0 66 25 q21 16 21 26 l0 1 q0 19 -29 32 q-3 3 -3 4 l0 0 q0 2 2 2 q13 -2 35 -21 q5 -8 5 -15 l0 -1 q0 -35 -84 -60 q-7 -2 -25 -5 q-39 11 -51 31 q-7 11 -7 19 l0 7 q8 29 25 44 q1 1 2 1 l-1 3 q1 2 29 24 q27 26 27 28 l0 1 q0 0 0 0 l-6 0 q-7 0 -54 -12 q-3 -1 -5 -1 q-3 2 -5 2 l0 3 q0 6 40 13 q28 4 42 7 Z" /><glyph glyph-name="" unicode="&#x5e0c;" d="M156 211 l2 0 q2 0 3 -4 q0 -7 -16 -25 l0 -1 q4 -4 48 -22 q2 0 2 -5 q-1 0 -1 -1 q-22 7 -44 17 q-1 0 -9 3 l-1 0 q-3 0 -22 -22 q-28 -28 -33 -29 q-1 0 -3 0 q0 5 14 17 l34 38 q0 1 -20 8 q-12 7 -16 12 l0 1 q0 2 3 3 l1 0 l38 -16 q5 0 14 20 q5 6 6 6 ZM206 151 l4 -1 l0 -4 q-6 -3 -35 -12 q-1 -1 -40 -15 q-8 -9 -29 -36 q-1 0 -2 -3 l7 -9 l1 0 q31 14 31 18 q0 29 8 29 q7 0 7 -26 l0 -1 l2 0 q17 5 23 5 q23 -3 23 -18 l0 -3 q-8 -47 -22 -47 q0 -1 -6 -2 q-11 0 -19 14 q-4 5 -5 10 q1 2 1 3 l1 0 q3 0 14 -10 l4 -1 l3 0 q10 0 16 26 q1 3 1 6 q0 11 -15 11 q-22 0 -22 -6 q-4 -49 -4 -65 l0 -21 q0 -9 2 -51 q0 -1 -2 -4 q-7 0 -9 69 l0 5 q1 51 1 57 l0 2 q0 6 -1 6 q-11 -3 -29 -15 l0 0 l13 -29 l0 -2 l-3 0 q-4 2 -16 26 q-1 2 -8 3 l0 2 l0 5 q-2 6 -3 6 l0 0 q-6 -4 -32 -36 q0 0 -16 -20 l-2 0 q-1 0 -3 3 q5 8 32 42 q16 19 41 49 q1 2 1 2 l0 0 q-19 -8 -57 -28 l-5 -2 q-3 1 -3 3 l0 2 q6 7 75 37 q12 20 16 21 q1 0 4 -3 q-1 -5 -6 -13 l-1 0 q60 21 64 21 Z" /><glyph glyph-name="" unicode="&#x5f0f;" d="M111 192 q5 -3 5 -14 l0 -33 q0 -7 1 -21 l-1 0 q37 10 40 10 q1 0 3 -3 q0 -4 -16 -7 q-25 -5 -25 -11 q0 -54 25 -96 q23 -30 56 -44 q4 -3 11 -3 q9 0 9 17 q0 15 -12 79 q-1 11 -1 13 q0 4 4 4 q2 0 7 -39 q13 -46 13 -67 l0 -1 q0 -15 -14 -17 q-27 7 -48 21 q-34 27 -44 55 q-14 40 -14 72 q0 6 -1 6 l-59 -24 q-6 -2 -16 -4 q-7 1 -7 4 q0 4 27 10 q8 5 54 22 q0 1 0 1 q-2 52 -2 64 q0 6 5 6 ZM156 183 q7 0 32 -27 l0 -3 q-1 0 -1 0 q-3 0 -24 17 q-9 5 -11 10 q0 3 4 3 ZM78 71 q5 -1 5 -4 l0 -1 q-7 -7 -32 -15 q-11 -5 -17 -5 q-1 0 -4 3 q0 4 31 17 q6 5 17 5 ZM58 45 q3 0 4 -5 q-1 -28 -3 -28 q0 0 0 0 q0 0 16 12 q17 11 36 17 l1 -2 l0 -1 q-5 -5 -21 -12 q-25 -16 -52 -41 q-4 -2 -6 -2 q-2 0 -3 3 l0 2 q7 9 18 17 l1 3 l0 7 q4 30 9 30 Z" /><glyph glyph-name="" unicode="&#x5fae;" d="M191 169 q4 -2 4 -3 q0 -4 -19 -46 q-6 -12 -15 -39 q-1 0 -1 -1 q-3 1 -4 4 q10 44 29 80 q3 4 6 5 ZM118 168 q4 -1 4 -5 q0 -18 -7 -35 q0 0 0 1 q3 2 10 7 l3 0 l0 -3 q-12 -14 -40 -38 q-9 -10 -17 -11 q-8 2 -8 7 q0 3 8 16 q5 10 9 29 q3 1 3 3 q6 -3 6 -7 l0 -2 q0 -5 -6 -23 l0 -1 l0 0 q27 14 27 31 q3 31 7 31 l1 0 ZM144 154 q4 -1 4 -8 q-3 -29 -7 -37 q-5 -7 -6 -7 l-2 0 q-3 2 -3 5 q5 47 14 47 ZM51 142 q4 -1 4 -5 q0 -13 -36 -43 l-4 -1 l-1 0 q0 1 -2 1 q4 6 25 31 q9 15 14 17 ZM209 132 q8 -4 8 -11 q-1 -6 -23 -42 q-9 -22 -16 -36 l0 -2 q5 -10 41 -38 q12 -12 23 -17 l0 -2 l0 -1 q0 -2 -3 -2 q-18 6 -47 32 q-19 20 -19 20 q-2 -2 -15 -27 q-13 -24 -25 -24 l-3 0 l-4 0 l0 3 q18 16 29 32 q11 19 11 22 q-20 24 -23 37 q0 2 3 5 q8 -4 24 -28 q0 -1 2 -2 l0 0 q1 2 19 45 q6 10 6 14 q0 0 -19 -10 q-3 0 -6 4 q5 8 20 18 l16 10 l1 0 ZM49 105 l2 0 q1 0 4 -4 q-6 -18 -23 -40 l-6 -4 l-3 0 q0 2 0 3 q0 5 15 28 q8 17 11 17 ZM121 99 q3 0 7 -6 q0 -7 -25 -17 q-4 -4 -9 -6 q-4 2 -4 4 q2 8 23 20 q2 5 8 5 ZM46 77 q6 0 6 -27 q0 -9 1 -43 q0 -2 -2 -10 l-3 0 q-7 0 -7 55 q1 4 1 13 l0 4 q0 5 4 8 ZM107 66 q7 0 9 -12 q-4 -18 -4 -34 q0 -4 3 -4 l2 0 q3 0 15 5 q4 0 4 -3 q-12 -17 -23 -17 q-14 0 -14 22 q0 19 0 26 l0 0 q-4 0 -17 -47 q-6 -13 -8 -13 l-3 0 l0 4 q0 6 13 49 l0 -1 l-5 0 q-2 0 -4 4 q0 7 32 21 Z" /><glyph glyph-name="" unicode="&#x5fd7;" d="M129 183 q5 0 5 -8 l0 -21 q0 0 0 0 q2 0 14 9 l2 0 q5 -3 5 -6 q0 -6 -12 -8 q-10 -4 -10 -9 q0 -6 -5 -31 l-4 -1 q0 2 -2 2 l1 5 l0 17 q0 2 1 5 q-1 1 -1 1 q-41 -13 -52 -13 q-1 0 -2 3 l0 1 q0 4 50 19 q5 2 5 15 l0 9 q0 11 5 11 ZM152 113 q2 0 2 -2 l0 -2 q-13 -6 -49 -24 q-3 0 -5 4 q0 10 50 24 l2 0 ZM137 79 l1 0 q2 0 3 -6 q-10 -32 -10 -65 q-1 0 -2 -2 q-5 0 -5 19 q-1 0 -1 3 q6 51 14 51 ZM151 70 l0 0 q23 -4 23 -10 q3 0 8 -19 l0 -10 q0 -22 -23 -49 q-15 -15 -35 -15 q-22 0 -38 12 q-3 3 -5 15 q0 14 12 51 q5 11 7 11 l1 0 q2 0 3 -4 q-11 -40 -12 -49 l0 -6 q0 -14 28 -20 l5 0 q23 0 39 27 q7 13 7 23 l0 11 q0 17 -17 24 q-11 1 -11 4 l0 0 q0 3 8 4 ZM203 69 q7 0 10 -45 q6 -26 6 -29 q0 -2 0 -3 l-3 0 q-4 0 -12 44 l-5 27 l0 1 q0 4 4 5 ZM57 49 l2 0 q2 0 3 -3 q0 -2 -18 -56 q-2 -6 -5 -8 l-1 0 q-2 0 -2 3 q0 7 19 63 l2 1 Z" /><glyph glyph-name="" unicode="&#x600e;" d="M108 201 q3 0 3 -3 q-11 -26 -29 -56 q-2 -6 -2 -9 l0 -1 q18 0 68 28 q19 8 29 12 q3 -1 3 -3 l0 0 q0 -3 -28 -16 q-30 -17 -62 -29 q-4 -4 -15 -6 q-9 1 -9 9 q0 7 19 38 q18 36 22 36 l1 0 ZM122 132 l2 0 q4 -2 4 -13 l0 -7 q0 -1 1 -1 q18 11 27 11 q0 -2 3 -2 q-5 -6 -28 -18 q-3 -2 -5 -22 l0 -5 l1 0 q35 24 42 24 q3 -1 3 -3 q0 -4 -40 -28 q-6 -2 -6 -12 q-3 -47 -7 -47 q-1 0 -2 0 q-5 0 -5 8 l5 36 l0 5 q0 0 -1 1 l-1 -1 q-3 0 -5 4 q0 3 8 9 q0 0 0 20 l0 0 l-1 0 q-6 -4 -7 -4 q-1 0 -4 3 q0 4 11 13 q1 2 1 4 l0 11 q0 14 4 14 ZM202 42 l0 0 q4 0 8 -27 q3 -11 8 -44 q-2 0 -2 -1 q-4 0 -9 18 q-3 7 -10 47 q2 7 5 7 ZM74 41 q3 0 6 -5 q0 -2 -20 -39 q-14 -27 -18 -32 l-1 0 l-3 2 q11 31 35 73 q1 0 1 1 ZM180 28 l1 0 q2 0 3 -7 q0 -35 -45 -63 q-5 -3 -29 -10 q-28 3 -28 24 q5 40 13 52 l2 0 q2 0 3 -4 q-7 -35 -7 -43 q0 -11 11 -15 q4 -1 5 -1 l7 0 q19 0 46 29 q16 19 16 37 l2 1 ZM131 27 q6 0 7 -30 l3 -14 l-3 -1 q-7 0 -12 35 q1 10 5 10 Z" /><glyph glyph-name="" unicode="&#x61c2;" d="M195 198 q3 0 5 -4 q0 -8 -24 -17 q-2 -3 -8 -16 l-2 -2 l-1 0 q-1 0 -3 3 l3 10 l0 -1 q-30 -12 -30 -14 l0 -11 l1 -5 l1 0 q25 14 35 14 q3 0 5 -4 q0 -7 -22 -12 q-20 -11 -26 -11 q-2 1 -3 4 q1 2 1 3 l0 1 q-1 16 -2 16 q-22 -8 -23 -8 q-3 2 -3 3 l0 2 q0 3 23 14 l2 2 l0 17 q0 6 5 8 q5 -2 5 -8 l0 -14 l0 0 q5 0 35 16 q1 1 4 11 q1 0 3 0 q2 0 4 -4 q-1 -2 -1 -2 l-1 0 q1 0 17 9 ZM53 166 l4 0 l1 -4 l0 -44 l3 -63 l0 -33 q0 -15 -2 -27 l-3 0 l-1 5 l0 9 q0 18 -5 91 q-1 5 -1 47 q0 19 4 19 ZM194 140 q4 -1 4 -3 l0 -1 q-3 -3 -46 -25 q-2 -2 -2 -6 l0 -9 l0 -1 l24 11 q8 4 14 4 q7 0 10 -12 l-9 -57 q-3 -11 -13 -18 q-3 -6 -26 -21 q-1 -3 -1 -5 l0 -16 l0 0 q30 7 54 7 q31 -6 39 -13 l0 -4 q-1 0 -1 -1 q-17 8 -30 8 l-7 0 q-51 0 -111 -25 l-4 -1 q-3 0 -5 4 q0 6 41 18 q15 5 15 6 q-1 12 -1 15 l-1 0 q-5 -5 -8 -5 l-1 0 q-1 0 -3 4 q0 3 13 14 l2 19 l0 2 l1 0 q-8 -3 -12 -3 l-2 3 q0 4 12 11 q1 2 1 4 l0 5 q0 0 0 0 l-2 0 q-1 0 -2 -1 q-4 2 -4 3 l0 3 q7 6 7 6 l0 17 l-1 0 q-20 -9 -20 -32 q0 -3 0 -17 l0 -5 q-1 -9 -4 -9 l-1 0 q-4 0 -5 28 q0 2 1 11 l0 0 q-3 -3 -8 -3 l-1 2 l0 2 q9 13 25 24 q0 1 12 10 q2 2 2 4 l0 12 q0 0 0 0 q-6 0 -42 -28 l0 -1 q0 -1 6 -12 q0 -2 0 -3 l-3 0 q-12 12 -15 19 q-14 17 -14 20 q0 2 4 4 q14 -8 14 -17 q1 -3 2 -3 l1 0 q17 15 46 31 q0 5 6 9 q4 -3 5 -3 q22 13 44 20 ZM19 102 q7 0 8 -28 l0 -28 q0 -22 -4 -22 l0 0 q-5 0 -7 61 q-1 0 -1 8 q0 6 4 9 ZM150 77 l0 -4 l0 -5 l0 0 q4 0 30 14 q4 0 4 1 l0 1 q0 14 -3 14 q-18 -4 -30 -14 q-1 -5 -1 -7 ZM151 51 l0 -4 l0 -2 l2 0 q8 6 19 7 q7 -1 7 -7 q0 -6 -22 -9 q0 0 -4 -1 l0 0 l3 0 q26 0 26 28 l0 2 q0 2 -1 3 l-1 0 q-29 -8 -29 -17 ZM149 16 l1 -2 q13 7 13 9 l-1 0 l-4 0 q-2 0 -7 3 l0 0 q-2 0 -2 -10 Z" /><glyph glyph-name="" unicode="&#x6210;" d="M162 196 q12 -4 53 -42 q0 -1 0 -3 q0 -1 0 -3 l-4 0 q-12 14 -35 28 q-12 9 -17 16 l0 1 q0 1 3 3 ZM95 184 q9 0 19 -28 q8 -27 8 -30 q3 0 10 13 q6 3 10 3 q2 0 4 -4 q0 -9 -19 -18 q-2 -2 -2 -3 l0 -2 q15 -49 27 -67 l0 0 q9 41 15 41 q2 0 4 -4 q-12 -45 -12 -47 l0 -1 q12 -26 34 -54 q8 -8 9 -8 l1 0 q1 0 1 10 q0 17 -9 61 q0 3 0 12 l0 9 q-2 10 -2 12 l0 14 l0 5 l2 1 q6 0 6 -32 q4 -33 15 -88 q0 -5 1 -11 q-3 -13 -9 -13 q-10 1 -35 41 q-14 28 -17 28 q-2 -2 -15 -45 q-2 0 -4 0 l-2 2 q13 51 13 53 q-1 6 -16 37 q-6 14 -15 41 l-1 0 q-22 -13 -31 -24 q-13 -37 -15 -44 l-1 0 q31 31 45 36 q1 0 2 0 l1 0 q7 0 10 -12 q-7 -29 -11 -56 q-7 -35 -19 -35 q-12 0 -21 35 q-2 13 -2 24 l0 0 l1 0 q-12 -6 -20 -37 q-9 -29 -10 -32 l-2 -1 l-3 0 l-1 4 q12 42 12 47 l0 3 q7 12 9 20 q4 16 9 28 q5 16 5 17 q-1 0 -23 -13 l-4 0 q-2 2 -2 4 q0 3 29 18 q10 10 22 15 q17 9 18 13 q-9 37 -22 53 q-1 2 -1 4 l0 2 q0 1 4 3 ZM77 39 l0 0 q2 0 7 -19 l10 -22 q3 -5 4 -5 q10 6 16 63 l0 6 q0 3 -2 3 q-15 -6 -35 -26 Z" /><glyph glyph-name="" unicode="&#x6211;" d="M123 183 q5 0 7 -25 q6 -40 11 -52 l1 0 q2 0 36 12 q1 0 3 0 l0 -4 l-36 -16 q0 0 -1 -1 q11 -29 20 -40 q1 0 1 -1 q0 0 4 13 q3 6 6 7 l2 0 q2 0 3 -4 q-9 -28 -9 -28 l0 -3 q1 -11 36 -55 l2 -1 l1 0 q3 2 3 17 l0 9 q0 10 -4 63 q2 22 4 22 l1 0 q3 0 3 -8 l0 -1 q0 -29 9 -90 l0 -7 q0 -18 -12 -22 q-11 0 -36 45 q-1 0 -13 19 l0 0 q-1 0 -12 -29 q-2 -7 -22 -37 l-3 0 l-1 3 q3 8 18 37 l13 35 l0 4 q0 3 -19 41 q-2 8 -3 8 l-3 0 q-29 -9 -29 -15 q0 -4 1 -17 q2 0 30 26 l4 0 q0 -1 0 -1 q0 -5 -34 -35 q7 -53 7 -58 q-5 -27 -23 -27 q-31 6 -31 17 q-2 0 -2 14 l0 4 l1 5 l4 0 q4 -17 8 -17 q11 -7 21 -7 l2 0 q1 0 7 19 l0 19 q0 15 -2 23 l0 0 q-14 -8 -61 -54 q-1 0 -1 -1 q-4 1 -4 4 q6 13 50 49 q13 9 16 15 q-2 6 -2 20 l0 0 q-7 -2 -34 -16 l-4 -1 q-1 0 -2 3 q0 6 36 22 q3 2 3 8 l0 12 l0 4 l4 0 q4 0 5 -19 l-1 0 l30 13 q-6 15 -11 54 q0 5 -3 20 q0 3 5 6 ZM166 177 q6 -1 42 -42 q0 -1 1 -3 l-2 -1 l-2 0 q-42 39 -43 41 q0 3 4 5 ZM66 139 q6 -1 20 -1 l14 0 q9 0 11 -5 q0 -5 -22 -6 l-10 0 q-11 0 -18 7 l0 2 q0 2 5 3 Z" /><glyph glyph-name="" unicode="&#x65b9;" d="M105 175 q22 -5 35 -17 q10 -8 10 -10 l0 -1 q0 -2 -3 -3 l-2 0 q-5 2 -19 7 q-27 15 -27 20 q1 4 6 4 ZM208 159 l4 -3 q0 -5 -39 -18 q-43 -14 -43 -21 q-7 -9 -8 -13 l0 1 q22 10 41 10 q29 0 29 -29 q0 -46 -34 -86 q-24 -25 -41 -25 q-13 0 -18 15 q-2 5 -2 6 q6 21 10 36 q4 6 6 8 q1 -1 3 -1 l0 -2 q-7 -21 -7 -34 q0 -16 12 -16 q19 0 44 39 q16 30 16 53 l0 3 q0 17 -11 20 q-9 2 -13 2 q-11 0 -38 -11 q-10 0 -17 -13 q-22 -30 -50 -61 q-3 -5 -6 -5 q-1 0 -3 0 l0 2 q0 4 34 44 l40 55 l0 -1 l0 0 q-48 -18 -59 -18 q-6 0 -9 5 q0 6 31 11 q41 14 74 28 q32 10 54 19 Z" /><glyph glyph-name="" unicode="&#x662f;" d="M155 182 l1 0 q7 0 10 -10 q-1 -5 -19 -25 q-5 -9 -13 -17 l-4 0 q0 1 -1 1 l6 13 q0 0 0 0 l-29 -7 q-2 0 -3 3 q0 4 17 9 q6 5 14 5 l0 0 q4 0 7 -2 q0 0 8 18 l0 0 l-1 0 q-21 -2 -56 -19 q-5 -5 -8 -5 l0 1 q5 -13 9 -28 q3 -7 5 -7 q4 0 30 11 q12 2 14 2 l1 0 q5 0 6 -4 l-12 -4 q-20 -10 -33 -14 q-2 -1 -2 -1 q3 -7 3 -10 q-1 0 -1 0 q-3 0 -8 6 q-1 1 -1 1 q-7 -2 -9 -2 q-4 0 -6 4 l0 2 q5 7 10 7 l0 -1 q-4 13 -23 48 l0 2 q1 4 5 4 q8 -9 8 -9 l2 0 q1 0 15 9 q18 10 58 19 ZM162 117 q4 -2 4 -4 q-3 -6 -37 -20 q-38 -19 -45 -26 l0 0 q0 -1 0 -2 q-14 -66 -20 -78 q-1 0 -1 -1 q-4 0 -6 5 q9 30 15 56 q3 13 3 17 q0 0 -28 -16 q-4 -1 -4 -2 q-5 1 -5 4 q0 4 32 20 q6 4 85 45 l7 2 ZM123 85 l2 0 q2 0 4 -4 q0 -3 -4 -34 l0 -9 q0 -4 -4 -6 q-6 0 -7 13 q5 40 9 40 ZM182 83 q4 -1 4 -3 l0 -1 q0 -2 -25 -9 q-10 -5 -17 -5 q-3 0 -6 3 q0 5 19 11 q8 3 25 4 ZM87 58 q3 0 14 -13 q48 -40 83 -52 l29 -17 q5 -3 5 -7 q-1 0 -1 -2 q-24 14 -48 23 q-43 20 -62 35 q-23 22 -23 28 l0 2 q0 2 3 3 Z" /><glyph glyph-name="" unicode="&#x6709;" d="M159 194 l1 0 q1 0 3 -3 q0 -4 -23 -37 l0 0 l-1 0 q56 14 62 14 q4 0 4 -2 l0 -2 q-37 -8 -71 -20 q-10 -13 -47 -79 q-12 -23 -25 -43 l-4 0 q0 6 25 51 q0 4 38 67 l0 0 l-66 -25 q-2 1 -3 3 q2 7 36 18 q23 9 40 15 q16 27 31 43 ZM157 125 l3 0 q13 0 19 -14 q1 -5 1 -9 l0 -5 q0 -62 8 -116 l0 -3 q0 -22 -16 -22 q-12 0 -18 28 q1 1 1 3 l2 0 q3 -2 9 -14 q2 -2 4 -2 l3 0 q3 1 3 13 l0 21 l-5 50 l0 3 q0 54 -10 54 q-5 1 -6 1 q-14 -2 -26 -12 q-9 -27 -9 -35 l0 0 q18 9 28 9 q2 0 4 -2 q0 -4 -15 -8 q-3 -3 -15 -7 q-5 -5 -8 -15 q-1 -8 -1 -9 l-1 0 q9 4 30 8 l3 0 l16 0 q2 0 3 -3 q0 -3 -22 -6 q-14 -5 -28 -7 l-3 1 q-3 -13 -3 -46 q-1 -7 -3 -7 l-1 0 q-4 3 -4 12 l0 19 q2 19 6 44 q0 1 0 7 q4 0 10 35 l1 0 q-3 -2 -5 -2 q-3 0 -4 4 q7 11 23 21 q16 11 26 11 Z" /><glyph glyph-name="" unicode="&#x671b;" d="M186 185 q15 0 18 -23 q0 -88 11 -115 l0 -4 q0 -9 -12 -10 q-14 0 -33 22 l3 2 q10 -6 14 -7 q8 -3 14 -3 l1 0 q0 0 1 2 l0 6 q-5 45 -6 45 l0 0 q-29 -8 -39 -10 q-4 2 -4 3 l0 3 q0 3 40 10 q2 0 2 0 l0 14 q0 3 -1 3 q-39 -1 -39 -7 q-6 -64 -12 -64 l-1 0 q-1 2 -1 3 q0 12 5 61 q-1 2 -2 2 q5 12 9 12 q2 -2 3 -2 l2 0 q15 6 26 6 q1 0 11 -1 l0 0 l0 2 q-1 38 -11 38 l-3 0 q-11 0 -32 -17 q0 0 -2 -1 q-2 1 -3 3 q0 13 36 27 q4 0 5 0 ZM83 140 q13 0 24 -19 q1 -4 2 -4 q-1 -5 -3 -5 l-1 0 q-7 7 -20 16 q-6 6 -6 10 q0 2 4 2 ZM122 117 q5 -1 5 -3 l0 -1 q0 -3 -29 -12 q-28 -12 -63 -29 l-4 2 q4 11 68 36 q2 0 23 7 ZM90 96 q6 -3 6 -7 l0 -16 q0 -9 1 -14 q3 0 24 28 l5 4 l3 0 q0 -5 -18 -30 q-4 -5 -13 -24 q-5 -4 -7 -4 q-6 0 -8 9 q2 6 4 48 q1 4 3 6 ZM138 37 l20 0 q3 0 8 -1 l0 -2 q-1 -3 -27 -8 q-16 -5 -34 -5 l-4 0 q-4 0 -5 4 q0 10 42 12 ZM135 19 q6 0 7 -8 l3 0 q13 5 15 5 q2 0 2 -3 l0 -1 q-2 -4 -17 -9 q-1 0 -6 -20 l0 0 q10 1 38 3 q39 0 48 -3 l0 -4 q-1 0 -2 -1 q-20 1 -31 1 l-10 0 q-14 0 -95 -13 q-7 -2 -10 -2 q-5 1 -5 4 l0 0 q0 7 58 13 q2 2 2 4 l0 6 q-1 7 -2 7 l-2 0 q-2 0 -21 -8 q-2 1 -3 1 l0 3 q0 6 27 15 l3 9 q1 0 1 1 Z" /><glyph glyph-name="" unicode="&#x6742;" d="M145 191 q2 0 4 -4 q-2 -7 -11 -17 q0 0 0 0 q11 4 17 4 l2 0 q12 0 13 -19 q-6 -17 -11 -30 q-4 -14 -4 -22 q0 -5 1 -5 l2 0 q11 0 27 29 q5 12 5 24 l0 7 q0 4 -3 4 l-6 0 q-9 0 -9 3 l0 3 q6 1 9 1 l2 0 q13 0 15 -7 q2 -5 2 -10 q0 -30 -35 -66 q-5 -2 -9 -2 q-13 2 -13 12 q0 7 15 53 l0 6 q0 8 -7 8 q-15 0 -20 -9 q-15 -22 -24 -50 q-4 -16 -8 -16 l-3 2 q12 46 24 64 l-1 0 q-5 0 -39 -11 q-1 0 -4 3 q0 7 43 18 q7 0 17 18 q5 9 9 9 ZM131 108 l2 0 q4 -2 4 -6 l0 -24 q0 -11 1 -17 l0 0 q46 7 75 13 l2 0 q2 0 2 -2 l0 -1 q0 -5 -54 -14 q-11 -3 -24 -5 q-2 -1 -2 -8 l0 -11 q-1 -72 -8 -72 l-4 -1 q-6 0 -8 9 q1 15 7 15 q1 0 1 2 l0 4 q1 23 2 59 q-3 0 -21 -5 q1 0 1 -2 q-1 -9 -35 -48 q-17 -13 -24 -13 l-2 0 q-3 0 -4 3 l0 2 l12 5 q28 22 37 42 q6 7 8 9 q0 0 0 1 q-1 0 -58 -18 q-4 1 -4 4 q0 5 21 9 q28 10 65 20 q4 2 4 15 l0 28 q0 5 4 7 ZM162 45 q7 0 35 -30 q0 -1 22 -28 l0 -4 q-6 0 -26 23 q-35 30 -35 36 q1 3 4 3 Z" /><glyph glyph-name="" unicode="&#x6765;" d="M105 183 q12 -4 12 -30 q1 -5 1 -5 l1 0 q23 6 38 6 q3 0 10 -2 l0 -2 q0 -3 -21 -5 q-26 -4 -26 -7 q-1 -9 -1 -16 q0 -25 0 -28 l1 0 q14 16 24 39 l2 0 l3 0 q4 -3 4 -8 q0 -13 -16 -29 q-12 -6 -18 -13 l0 0 l0 0 q4 0 48 14 q1 0 4 -2 q0 -5 -19 -10 q-27 -9 -32 -11 l0 -1 q8 -14 54 -54 q5 -5 50 -38 l0 -4 l-4 0 q-30 18 -46 30 q-20 15 -54 51 q0 0 -1 1 l0 -1 l0 -10 q-6 -62 -8 -77 l-4 -3 l-2 0 q-5 3 -5 10 l0 1 q9 50 9 77 l0 10 q0 3 -1 4 l-1 0 q-11 0 -14 -19 q-19 -48 -36 -71 q-3 -1 -8 -8 l-1 0 l-4 2 q25 41 43 88 l0 2 l-1 0 q-42 -16 -51 -16 q-3 2 -3 3 l0 2 q0 3 28 10 q17 7 44 15 q3 2 5 8 q-2 30 -2 37 l0 14 q-50 -12 -54 -12 q-4 1 -4 3 l0 2 q0 3 37 11 q19 4 19 5 q-1 5 -3 23 l0 8 q0 3 3 6 ZM66 125 q9 0 16 -36 q1 0 6 -6 l0 -3 l-4 -1 l-2 0 q-13 0 -16 22 l-5 19 l0 1 q2 3 5 4 Z" /><glyph glyph-name="" unicode="&#x679c;" d="M141 184 l9 0 q14 0 14 -14 q-3 -17 -10 -26 q-3 -3 -20 -33 l-10 -13 l-1 0 q-2 0 -2 2 q0 4 9 20 l0 1 l1 0 q-12 -3 -12 -4 l0 -1 q0 -5 -1 -21 l0 0 q3 0 35 18 q1 0 3 2 q0 -2 2 -2 q-2 -6 -33 -24 q-9 -4 -9 -11 q0 -11 0 -14 q0 -4 16 -16 q21 -17 66 -37 q22 -11 26 -16 l0 -3 q-1 0 -1 -1 q-17 9 -60 26 q-18 9 -49 33 l0 0 q-2 -20 -4 -63 q-1 -19 -4 -21 q-4 0 -4 11 q0 6 4 73 l0 4 q0 2 -7 10 q0 1 -1 2 q2 4 3 4 l2 0 q4 -2 5 -2 l0 0 q0 8 0 10 l0 0 q-17 -7 -63 -37 q-9 -5 -11 -5 q-2 0 -3 0 l0 4 q7 7 44 29 q34 19 35 21 l0 2 q0 6 0 18 l0 3 l0 0 q-11 -4 -26 -14 l0 -1 l5 -15 l-2 -3 q-4 0 -10 16 q-9 20 -22 43 l-2 6 q2 3 3 3 q5 0 13 -14 q1 -1 1 -1 q34 21 40 21 q2 1 2 2 l0 3 q0 8 5 8 q4 0 5 -7 l0 -3 l5 0 q4 0 6 -4 q-3 -2 -11 -5 q-3 -5 -3 -18 l0 -3 q0 0 1 0 q6 3 17 6 q14 19 14 35 l0 2 q-2 4 -7 4 l-5 0 q-31 0 -71 -20 q-2 -2 -8 -4 q-3 1 -3 3 l0 2 q6 8 39 20 q34 9 45 9 ZM74 124 l0 -1 q7 -14 7 -14 l2 0 q23 11 26 13 q2 3 2 9 l0 13 l0 0 q-14 -3 -37 -20 ZM86 67 l1 0 q4 0 5 -4 q-23 -75 -35 -75 q0 -1 -4 -2 q-3 2 -3 3 q11 12 22 40 q8 30 14 38 Z" /><glyph glyph-name="" unicode="&#x6837;" d="M202 176 q2 0 4 -4 q-10 -17 -37 -32 q-2 -2 -8 -3 l-1 2 l0 2 q13 15 27 24 q9 11 15 11 ZM135 166 q6 0 18 -22 q5 -4 8 -7 l0 -3 q-1 0 -2 -1 q-8 0 -21 13 q-7 11 -8 16 q1 4 5 4 ZM180 135 l4 0 q8 0 8 -6 q0 -7 -19 -7 q-11 0 -39 -7 q-3 2 -4 4 q0 10 50 16 ZM92 134 q2 0 3 -6 q-2 -9 -2 -30 q1 -2 2 -2 l4 1 l5 -2 q0 -3 -10 -8 q-2 -6 -2 -11 l0 0 q0 -9 11 -15 q7 -7 20 -17 l0 -4 l-4 0 l-27 15 l0 0 l0 -3 l0 -41 q0 -8 -4 -10 q-4 1 -4 6 l0 7 q0 4 -2 15 l0 30 q0 5 -4 8 q1 0 -11 -30 q-12 -24 -24 -24 q-4 0 -7 4 q0 3 14 12 q6 6 21 46 q3 5 5 5 q3 0 5 -6 l0 0 q2 0 3 6 l0 3 q0 0 -1 0 q-26 -7 -29 -7 q-3 0 -5 3 q0 8 33 16 q2 2 2 5 l0 6 q0 28 8 28 ZM158 121 q6 0 9 -20 l1 0 q10 3 13 3 q13 -2 13 -5 l0 -1 q0 -3 -26 -7 q-1 -2 -1 -8 l0 -8 q0 -1 0 -2 q32 8 51 17 l1 0 l1 -2 l0 -1 q-8 -7 -34 -19 q-19 -3 -19 -10 q0 -18 -4 -55 l0 -18 q0 -3 -2 -11 l-4 0 q0 1 -1 7 q1 35 1 48 q0 3 -1 28 q0 2 0 1 l-2 0 l-18 -4 q-3 0 -5 3 q0 6 24 12 l0 1 l0 12 q0 4 -1 4 l-2 0 q-17 -7 -19 -7 q-4 2 -4 4 q0 7 23 13 l2 3 l0 7 l0 7 q0 7 4 8 Z" /><glyph glyph-name="" unicode="&#x6c38;" d="M82 176 q3 0 28 -9 q15 0 15 -3 l0 -2 q-1 -2 -4 -2 q-43 4 -43 11 l-1 1 q1 4 5 4 ZM116 144 q6 0 9 -9 q0 -2 -8 -20 q-6 -25 -6 -46 q0 -37 14 -86 q0 -7 -10 -9 q-10 0 -17 15 q-4 3 -10 27 q-5 11 -9 30 q2 2 2 4 l2 0 q3 0 9 -28 q10 -24 16 -26 l0 0 l0 -1 q0 19 -4 54 q-1 6 -1 19 l0 10 q0 20 5 51 l1 0 q-21 -5 -47 -9 q-4 2 -4 4 q0 8 35 11 q19 9 23 9 ZM173 126 l2 0 q1 0 4 -3 q-13 -20 -42 -42 q-5 -1 -5 -2 l0 0 q32 -34 46 -45 q23 -15 51 -31 q7 -4 7 -6 l0 -3 l-2 0 q-58 29 -73 42 q-12 8 -35 30 q-5 7 -9 11 l0 2 q0 2 13 8 q20 16 43 39 ZM97 99 q6 -3 6 -7 q0 -9 -18 -22 l-30 -38 q-24 -23 -33 -30 q-2 1 -3 1 l0 2 q49 51 63 76 l0 0 l1 0 q-2 0 -33 -11 q-4 1 -4 3 l0 2 q4 4 31 14 q16 10 20 10 Z" /><glyph glyph-name="" unicode="&#x7136;" d="M181 189 q6 0 20 -23 q16 -25 16 -28 l0 -3 l-3 0 q-3 2 -12 16 q-23 23 -25 34 q0 2 4 4 ZM98 167 q2 0 4 -4 q-16 -35 -16 -36 l0 0 q6 0 22 -8 l0 0 q3 9 3 13 q0 1 -9 3 q-1 2 -2 2 q5 12 14 12 q11 0 13 -15 q0 -4 -18 -38 q-4 -8 -4 -11 l0 0 l1 0 q3 0 4 -2 q0 -4 -8 -5 q-1 -1 -14 -25 q-19 -32 -41 -41 q-1 0 -3 0 q0 5 15 17 q24 28 31 51 l0 -1 l1 0 q-18 1 -18 5 l0 2 q1 2 5 2 q8 -2 13 -2 l2 0 q3 0 13 27 l0 0 l-3 0 q-10 0 -19 6 l-12 -22 q-3 -5 -5 -5 l-2 0 q0 2 -1 3 q4 17 29 70 q2 2 5 2 ZM155 158 q4 0 5 -4 l-11 -31 q1 0 1 -1 q28 10 38 18 l4 2 q1 -1 2 -1 q0 -9 -45 -28 q-4 -3 -7 -21 q-8 -33 -20 -33 l-1 3 q0 4 10 25 q2 9 5 20 l-4 0 q-1 0 -3 3 q0 4 10 8 q10 34 15 40 l1 0 ZM146 100 q4 0 32 -27 q18 -12 19 -14 l0 -2 q0 -2 -2 -2 l-2 0 q-21 4 -46 33 q0 1 -4 8 q1 1 3 4 ZM237 42 q2 0 2 -2 l0 -1 q0 -9 -23 -39 q-12 -12 -31 -40 l-4 0 l0 4 q18 28 30 44 q19 30 24 34 l2 0 ZM148 28 q2 0 18 -18 q9 -8 17 -8 q0 -1 1 -1 q-1 -4 -5 -4 q-15 2 -24 10 q-10 11 -12 17 q2 4 5 4 ZM95 19 q4 0 25 -18 q5 -1 5 -3 l0 -3 q-4 -2 -7 -2 q-10 0 -26 19 l-1 4 l4 3 ZM19 8 q4 0 21 -17 q13 -5 15 -9 q0 -1 -3 -3 q-13 3 -31 17 q-4 6 -4 9 l0 1 q0 1 2 2 Z" /><glyph glyph-name="" unicode="&#x754c;" d="M168 203 l3 0 q12 0 15 -16 q-8 -18 -33 -53 l0 1 l1 0 q5 0 6 -3 l0 -1 q-2 -3 -17 -8 l-1 -1 q17 -13 59 -28 q22 -4 22 -12 q0 -3 -4 -4 q-57 18 -84 37 q-6 2 -10 2 q-2 0 -19 -6 q-4 0 -9 8 q-10 6 -15 24 q-5 8 -13 30 l-4 0 q-3 0 -5 3 q0 6 26 11 q22 9 69 13 q13 2 13 3 ZM78 174 q11 -26 12 -26 l1 0 q38 15 38 20 q3 8 9 8 l2 -4 l-1 -3 l1 -1 l18 9 l3 0 q0 -1 1 -1 q-2 -6 -23 -17 q-3 -18 -5 -24 q-2 -1 -2 -1 q-6 0 -6 19 l1 0 q-32 -13 -32 -14 q4 -10 11 -17 l0 0 l38 12 q24 35 28 49 l0 6 q-1 3 -10 3 l-6 0 q-31 0 -78 -16 q0 -2 0 -2 ZM114 115 q3 0 5 -5 q0 -2 -10 -19 q5 -5 5 -14 l0 -22 q0 -5 1 -27 q-1 -8 -5 -8 q-8 0 -8 10 q0 2 1 2 q0 19 0 28 l0 14 q0 3 0 9 l0 0 q0 0 -20 -27 q-27 -29 -34 -29 q-2 -2 -13 -6 q-1 1 -2 1 l0 3 l18 13 q33 32 45 54 q10 17 17 23 ZM160 97 q7 0 7 -19 l0 -16 q-3 -100 -4 -113 l-2 -1 l-1 0 q-3 0 -3 52 l0 66 q0 10 -1 26 q1 3 4 5 Z" /><glyph glyph-name="" unicode="&#x7684;" d="M89 170 q4 -1 4 -6 q-5 -31 -58 -94 l-2 -1 l-2 3 q0 3 27 39 l16 28 q7 13 12 29 q2 2 3 2 ZM189 167 l2 0 q2 0 3 -4 q0 -3 -23 -33 l0 1 q20 9 31 9 q20 0 22 -36 q1 -11 1 -27 l0 -11 q0 -60 -39 -85 q-6 -1 -7 -1 q-22 4 -22 8 q0 0 -2 3 q1 1 1 3 l2 0 q11 -6 14 -6 l3 0 q15 0 32 30 q10 20 10 55 q0 55 -22 55 q-21 0 -50 -34 q-3 -3 -6 -3 q-4 0 -6 5 q0 9 17 20 q14 17 36 49 l3 2 ZM120 127 l1 0 q13 0 15 -16 q-8 -45 -8 -56 l0 0 q0 0 15 11 q1 0 3 0 q0 -5 -17 -20 q-2 0 -7 -32 l-3 0 q-2 0 -2 4 q1 8 1 16 l0 0 l0 0 q-11 -8 -32 -28 l-3 -1 q-3 0 -4 4 q0 8 35 35 q6 7 6 19 q1 0 2 11 q-14 -4 -19 -5 q-8 -7 -11 -7 l-1 0 q-1 0 -3 3 q0 9 24 20 l3 0 q7 -3 7 -3 q1 2 1 3 l0 11 q0 17 -4 18 l-3 0 q-8 0 -43 -25 q-4 -4 -4 -7 q4 -28 4 -61 l0 -9 q-1 -7 -4 -7 q-3 2 -5 28 q-4 45 -7 62 l0 0 q0 5 5 5 q1 0 4 -3 l0 0 q29 21 49 30 q2 0 5 0 ZM155 85 q10 0 26 -29 q7 -15 7 -19 q0 -2 -2 -2 l-34 43 q-1 1 -1 3 l0 0 q0 2 4 4 Z" /><glyph glyph-name="" unicode="&#x76f8;" d="M198 164 l0 0 q11 0 14 -20 l0 -13 q0 -26 8 -137 q-2 -7 -7 -7 l-3 0 q-8 0 -11 18 q-3 4 -5 16 l0 0 l-3 0 q-31 -13 -47 -18 q-2 0 -4 4 l2 4 q0 1 -2 17 l0 79 q0 12 5 12 q6 0 6 -16 q1 -3 1 -3 q3 0 34 12 q8 2 12 2 q6 -1 5 -1 l1 2 q0 27 -9 36 l-2 0 q-4 0 -29 -15 q-3 -2 -11 -6 q-1 0 -4 3 q0 6 40 28 q5 3 9 3 ZM96 159 q2 0 3 -6 q-2 -24 -2 -33 l0 -2 q1 -2 1 -2 l1 0 q2 0 12 3 q2 0 3 0 l0 -3 q0 -2 -16 -9 q-2 -2 -2 -7 l0 -1 q0 -17 7 -20 q12 -9 31 -28 l0 -3 q-5 0 -30 17 q-4 2 -7 4 l-1 0 q0 0 0 0 q-1 -48 -1 -74 q0 -8 -3 -8 l-1 0 q-3 0 -3 5 l0 73 q0 13 -3 13 q0 -4 -39 -65 l-1 -1 l-3 0 l0 4 q22 40 29 61 q0 3 8 21 l1 0 q-2 0 -25 -10 q-11 -4 -14 -4 q-2 0 -4 4 q0 7 36 19 q13 6 14 7 q2 45 6 45 l3 0 ZM148 60 l0 0 q19 11 51 19 l2 0 q2 0 4 -3 q0 -3 -23 -10 q-29 -15 -33 -15 q-1 -4 -1 -13 l0 -19 q0 -5 2 -5 q30 12 41 15 l0 4 q0 6 -2 9 q2 4 3 4 l1 0 q3 0 5 -14 l1 0 q3 0 9 2 q-2 62 -5 72 l-1 0 l-1 0 q-15 -6 -49 -15 q-1 -6 -4 -31 ZM201 22 l0 -1 q0 -3 7 -14 l1 0 q1 5 1 14 q0 6 -2 6 q-5 0 -7 -5 Z" /><glyph glyph-name="" unicode="&#x770b;" d="M173 193 q5 -1 5 -3 l0 -1 q0 -2 -9 -5 q-1 -3 -26 -13 l0 1 q1 0 3 -3 q0 -3 -6 -17 l0 1 q7 2 13 2 q5 0 5 -4 q0 -3 -15 -7 q-11 -5 -11 -6 q-6 -12 -13 -24 l0 1 l0 0 q4 0 54 27 l14 6 l2 0 q0 -2 1 -2 q-5 -10 -47 -29 q-33 -17 -40 -26 q-22 -36 -33 -47 l-3 -1 l-1 2 q0 2 27 43 q0 1 0 1 l0 0 q-6 -4 -10 -5 q-2 0 -4 4 q0 5 20 14 q6 3 18 28 q1 0 1 3 q-17 -8 -21 -10 q-1 0 -4 3 q0 6 28 18 q9 7 16 25 l0 0 q-25 -10 -32 -10 q-4 1 -4 3 l0 1 q0 4 30 14 q28 12 42 16 ZM155 99 q19 -5 19 -22 q6 -62 6 -71 l0 -18 q0 -30 -22 -30 q-17 0 -20 26 q-2 3 -2 3 q-32 -6 -32 -14 q0 -5 -4 -5 q-6 0 -6 9 q9 43 9 94 q0 10 6 10 q4 -2 4 -1 q3 1 17 11 q18 8 25 8 ZM115 72 l-2 0 l0 -8 q-2 -33 -6 -74 l0 0 q13 5 31 8 l1 1 q7 -1 10 -1 l9 0 q5 0 6 -2 l0 -3 q-13 -2 -19 -4 l0 -1 q6 -15 12 -15 l3 0 q9 0 10 36 l0 3 q0 21 -5 48 l0 0 l-6 0 q-14 -4 -38 -10 q-2 1 -4 3 q0 9 38 14 l8 0 q2 0 2 0 q-5 18 -11 18 q-11 0 -36 -12 q-1 -1 -3 -1 ZM138 34 q10 -2 18 -4 l0 -4 q-17 0 -41 -10 l-1 0 q-1 0 -4 3 q0 7 24 15 q3 0 4 0 Z" /><glyph glyph-name="" unicode="&#x80fd;" d="M66 183 q3 -1 3 -3 l0 -1 q0 -5 -24 -45 q-1 0 -4 -5 l0 -1 q19 3 44 21 l0 1 q-1 8 -1 9 q0 6 3 6 l2 0 q2 0 5 -12 l0 0 q3 2 3 4 l5 -4 q-5 -7 -5 -8 q8 -27 14 -33 l0 -3 q-2 0 -3 -1 q-6 3 -19 31 l0 0 q-52 -29 -60 -29 q-5 0 -7 8 q1 2 8 10 q11 19 18 29 q13 26 18 26 ZM130 177 q4 -1 4 -6 q-3 -16 -3 -29 q0 -4 0 -11 l0 -1 l1 -2 l0 0 q7 5 34 16 q17 12 19 12 l4 -3 q-6 -7 -24 -20 q-23 -12 -32 -12 l0 1 q5 -17 24 -17 l0 0 q9 0 28 7 l2 -3 q0 -5 -34 -15 l-2 0 q-29 4 -29 29 q-1 2 -1 6 l0 20 q0 28 9 28 ZM76 109 l2 0 q14 0 14 -37 l0 -72 q0 -20 -8 -27 q-5 -2 -5 -3 q-13 3 -13 9 q0 5 10 7 q6 8 6 35 l0 1 l-1 0 q-20 -12 -39 -27 q-3 -1 -6 -1 l-2 2 q0 9 26 20 q21 12 21 14 q1 3 1 6 l0 11 q0 8 -2 8 q-6 -2 -30 -19 q-4 -1 -5 -1 q-3 1 -3 3 q0 6 26 21 q14 2 14 7 l0 4 q-4 26 -7 26 l-5 0 q-2 0 -22 -17 l-2 0 q-2 0 -3 4 q0 5 22 23 q8 3 11 3 ZM36 85 l2 0 q2 0 3 -5 q-7 -88 -12 -114 l-2 0 q-3 1 -3 4 q4 74 9 113 l3 2 ZM130 78 q3 0 4 -8 q-3 -26 -3 -25 l44 19 q8 3 17 6 q0 -2 2 -2 q0 -5 -27 -18 q-36 -15 -36 -21 q-2 -6 -2 -8 q0 -26 17 -34 q4 -5 20 -5 q26 0 46 17 q7 9 7 17 q-2 10 -26 14 q0 1 -1 1 q0 5 10 6 l4 0 q18 0 23 -11 q2 -2 4 -10 q0 -20 -35 -38 q-21 -7 -33 -7 l-4 0 q-17 0 -34 15 q-7 9 -7 30 l0 9 q0 3 -2 10 q3 6 6 39 q2 4 6 4 Z" /><glyph glyph-name="" unicode="&#x81ea;" d="M140 193 q4 0 4 -7 q0 -18 -69 -86 q-2 0 -3 0 l0 2 q0 3 13 16 q42 48 50 72 q2 3 5 3 ZM165 148 q11 0 11 -17 l0 -28 q0 -86 7 -109 l0 -10 q0 -17 -26 -27 l-3 0 q-8 0 -15 13 l0 3 q1 0 1 1 q9 -2 10 -2 l3 0 q19 4 19 27 l0 2 q-5 42 -5 45 q-3 86 -6 86 l0 0 q-5 0 -46 -33 l-7 -3 q-1 0 -4 3 q2 5 31 28 q22 21 30 21 ZM91 110 l1 0 q8 0 9 -25 l0 -2 q0 -7 -1 -18 q1 -1 1 -1 q1 0 21 12 q15 8 26 11 q2 0 5 -2 q-1 -4 -35 -22 q-19 -9 -19 -16 q-3 -35 -3 -52 q0 -3 0 -4 l0 0 q43 9 59 14 q2 0 3 0 l0 -3 q-1 -4 -35 -17 l-31 -7 q-3 -5 -8 -5 l-1 2 l0 18 q5 30 5 58 l0 17 q0 11 1 24 q-1 3 -1 14 q1 4 3 4 ZM143 47 q3 -1 3 -3 q-1 -3 -29 -18 l-9 -2 q-4 0 -4 2 l0 3 q10 11 35 17 q1 0 4 1 Z" /><glyph glyph-name="" unicode="&#x8868;" d="M113 189 q6 -1 6 -20 l0 -2 l-1 0 l27 5 q2 -1 3 -1 l0 -2 q0 -3 -26 -11 q-3 0 -3 -4 l0 -12 q0 0 0 0 l21 10 l5 0 l1 -2 l0 -1 q-2 -3 -20 -12 q-7 -4 -7 -13 q0 -9 1 -20 l-2 -3 q-5 0 -10 25 q-2 1 -2 1 q-21 -8 -26 -8 q-3 0 -4 3 q0 4 32 15 l0 1 l0 15 q0 0 -1 1 q-23 -8 -42 -12 q-5 1 -5 3 l0 2 q0 4 42 14 q6 0 6 10 l0 13 q0 5 5 5 ZM178 116 l0 -3 q-3 -3 -23 -10 q-18 -9 -55 -22 q-5 -8 -8 -11 l0 0 l29 -25 q33 -29 55 -40 q28 -20 51 -28 q7 -2 7 -5 l0 -2 q-2 0 -3 0 q-42 15 -62 28 q-20 10 -82 60 q-2 4 -3 4 l-1 0 q-5 0 -8 -40 l0 -36 l1 -2 l0 0 q13 11 36 38 l4 1 l1 0 l0 -5 q-21 -24 -27 -36 q-11 -19 -19 -21 q-6 0 -7 16 l0 3 l3 64 l1 0 q-9 -7 -42 -42 q-1 -1 -3 -1 l-1 0 l0 4 q10 12 62 69 l0 0 l0 0 q-21 -7 -30 -9 q-1 0 -3 0 l0 5 q5 4 36 14 q60 25 89 32 l2 0 ZM170 78 q1 0 4 -3 q-1 -8 -30 -19 q-12 -6 -19 -6 l-1 0 q-3 0 -3 2 l0 1 q3 2 23 10 q14 9 26 15 Z" /><glyph glyph-name="" unicode="&#x88ab;" d="M54 174 q8 0 20 -16 q0 -3 17 -22 q1 -2 1 -4 l-2 -1 l-1 0 q-36 31 -36 36 q-2 2 -2 3 q0 1 3 4 ZM160 174 l2 0 q4 -1 4 -7 q-2 -21 -2 -23 l0 0 q28 12 34 12 q9 0 9 -11 l0 -5 q0 -3 -11 -20 q-6 -15 -12 -20 l-3 0 q0 3 11 29 l2 10 q-1 4 -1 4 l-1 0 q-9 0 -28 -10 q-3 -23 -3 -39 q-1 -4 -3 -4 q-4 0 -4 23 l0 0 q0 6 1 16 q-1 1 -1 1 l-1 0 l-17 -7 q-4 2 -4 4 q0 5 22 13 q1 0 3 31 l3 3 ZM81 135 q8 -2 8 -9 q0 -5 -7 -14 l0 0 q10 -6 24 -21 q-1 -3 -5 -3 q-9 0 -26 15 l-2 0 q0 0 -6 -7 l0 1 q4 0 7 -13 q2 -2 20 -9 q21 -1 21 -5 l0 -2 l-4 -1 q-34 0 -34 4 q-1 0 -1 0 q1 -36 1 -54 l0 -6 q0 -15 -3 -22 l-4 0 l-1 4 q0 3 2 14 q-5 68 -9 83 l0 0 q-54 -56 -60 -56 q-1 2 -1 4 q67 68 70 80 l0 2 q0 0 0 0 l-37 -9 q-3 0 -5 5 q0 4 34 13 q14 6 18 6 ZM124 120 l4 0 l1 -4 l0 -12 q0 -33 -15 -106 l-2 0 q-3 1 -3 5 l0 2 q3 17 7 55 q3 14 5 57 l3 3 ZM189 100 q11 -2 11 -12 l0 -3 q0 -11 -18 -43 l0 -1 q1 -6 34 -31 q34 -25 39 -31 l0 -2 q-1 0 -1 -1 q-5 0 -71 48 q-6 6 -9 6 l-1 0 q-13 -16 -22 -20 q-6 -6 -9 -6 q-2 0 -2 2 q0 3 18 20 q8 10 8 14 q0 0 -12 12 q-11 15 -16 17 l0 1 q2 10 10 10 q33 20 41 20 ZM154 72 q2 -6 18 -25 q6 0 14 30 l0 8 q0 0 0 0 q-13 -2 -32 -13 l0 0 Z" /><glyph glyph-name="" unicode="&#x89e3;" d="M197 190 q14 -3 14 -12 l0 -4 q0 -13 -13 -31 q-11 -11 -15 -11 q-3 0 -3 3 q0 2 11 18 q5 11 5 19 l0 1 q0 4 -3 4 q-4 0 -43 -18 q-3 -1 -3 -2 q-4 2 -4 3 q0 7 36 23 q12 7 18 7 ZM83 183 q3 -1 3 -3 l0 -2 q-8 -13 -28 -41 l0 1 l0 0 q40 29 42 29 l0 0 q5 0 7 -8 q0 -10 -15 -25 q-10 -16 -10 -16 l-1 0 q18 14 26 14 l1 0 q10 0 10 -18 l0 -5 q0 -21 -2 -39 l0 -1 q0 0 5 -1 l0 -4 q-5 -2 -5 -13 q0 -41 -13 -55 q-7 -5 -10 -5 l-1 0 q-17 5 -17 9 q-1 0 -1 2 l0 1 q0 2 2 2 l3 0 q2 -1 5 -1 l1 0 q13 0 17 12 q4 11 4 31 q-1 7 -1 7 l-3 0 q-20 -14 -20 -14 q-3 -7 -8 -36 l-3 -2 l-2 0 l-1 4 q5 27 5 30 l0 0 l0 0 q-15 -9 -20 -9 l-1 0 q-1 0 -3 3 q10 11 25 18 q1 1 3 12 q-1 0 -1 0 q-9 -4 -16 -6 q-3 0 -5 4 q0 5 22 13 q4 3 4 14 q3 18 8 18 q3 -1 3 -4 q0 -3 -3 -23 q1 0 1 0 q18 3 18 9 l0 8 q0 23 -4 26 l-1 0 q-5 -1 -34 -26 l-3 -1 q-1 0 -3 1 q-7 -29 -26 -90 q-1 0 -1 -1 q-4 2 -4 4 q15 57 23 97 q3 2 5 2 q3 -1 3 -5 l0 0 l0 0 q4 4 12 20 q17 25 17 31 l0 0 l0 0 l-41 -32 q-6 -2 -7 -2 q-7 0 -8 8 q0 2 16 19 q18 27 31 39 ZM176 170 l1 0 q2 0 2 -2 l0 -1 q-4 -11 -21 -32 q-21 -33 -23 -33 l-3 0 l0 3 q10 21 41 63 l3 2 ZM179 121 q7 0 8 -17 l0 -4 q1 -2 1 -2 l15 0 q3 0 5 -3 q0 -3 -18 -7 q-5 -2 -5 -19 l0 -11 q0 -2 2 -2 q9 2 36 12 q0 -2 1 -2 q0 -5 -24 -14 q-16 -5 -16 -8 q0 -26 -8 -69 q-1 -13 -4 -15 q-3 0 -4 6 q2 14 5 59 l0 15 q0 1 -1 1 l-3 0 q-26 -9 -31 -9 l-1 0 q-1 0 -3 3 l0 1 q0 4 38 16 q2 2 2 5 l0 2 q0 7 0 22 l0 0 l-1 0 q-19 -8 -25 -10 l-3 0 q-7 0 -10 8 q0 3 19 29 l2 1 l2 0 q1 0 3 -3 q0 -2 -7 -18 l0 0 l2 0 q18 2 18 8 q0 25 5 25 ZM85 53 l-1 0 q22 7 22 13 l0 8 l-1 0 q-19 -7 -19 -13 q-1 -7 -1 -8 Z" /><glyph glyph-name="" unicode="&#x8bba;" d="M148 182 q3 -2 3 -5 q-6 -23 -29 -88 q-1 -4 -1 -7 l0 0 l1 -2 l0 -1 q0 -1 -6 -12 q-5 -15 -7 -19 l-4 3 q2 7 2 10 l0 1 q-3 0 -20 -26 q-21 -34 -21 -52 q-4 -13 -11 -13 q-6 3 -6 8 q3 4 3 82 l0 12 q0 0 0 0 l-3 0 q-7 -2 -29 -11 l-3 -1 q-1 0 -4 3 q0 6 36 23 q5 1 5 2 q8 0 11 -11 l0 -10 q-4 -16 -4 -60 l1 -2 l-1 0 q2 2 15 27 q10 17 35 44 q0 8 33 105 l4 0 ZM151 159 q5 0 32 -29 q12 -9 50 -35 l2 -3 l0 -2 l-2 0 q-2 0 -23 12 q-16 4 -61 47 q-3 3 -3 6 l0 1 q2 3 5 3 ZM36 150 l2 0 q16 0 44 -36 l0 -3 q-1 0 -1 -2 q-22 21 -24 21 q-18 10 -24 17 q2 3 3 3 ZM135 82 q3 -1 4 -4 l0 -1 q-11 -39 -11 -60 q2 1 26 33 q9 12 20 21 l2 0 q2 0 3 -3 q0 -3 -40 -48 q-8 -9 -9 -14 l0 -3 q10 -23 29 -23 l9 0 q29 0 57 31 q5 7 5 15 l0 2 q0 13 -16 22 l0 4 q2 0 3 1 q25 -8 25 -29 q0 -11 -20 -30 q-7 -12 -23 -18 q-20 -10 -32 -10 q-37 0 -47 36 l-2 15 l0 3 q0 17 14 59 l3 1 Z" /><glyph glyph-name="" unicode="&#x8bbe;" d="M159 169 q16 0 16 -24 q0 0 0 -3 q-2 -30 -2 -35 q0 -3 1 -12 q-1 -1 -1 -3 l-2 0 q-6 0 -9 52 q-3 11 -6 11 l-6 0 q-7 -2 -11 -2 q-1 0 -4 3 q7 13 24 13 ZM56 136 q9 0 21 -33 q3 -4 3 -8 q0 -2 -3 -2 q-7 5 -16 21 q-7 15 -7 19 q0 1 2 3 ZM120 131 l1 0 q4 0 4 -9 q-4 -41 -9 -41 q0 0 0 -1 q-6 0 -6 11 q5 30 8 40 l2 0 ZM58 82 q14 0 16 -19 l0 0 q0 -18 -2 -40 l0 0 q21 32 24 35 l3 0 l0 -3 q-4 -11 -22 -42 q-5 -19 -14 -19 q-5 0 -7 9 q6 22 6 38 q-2 26 -6 27 l-1 0 q-2 0 -29 -11 q-2 0 -5 3 q0 7 29 20 q4 2 8 2 ZM168 77 q11 -2 11 -8 l0 -4 q0 -11 -17 -32 q-4 -7 -4 -9 l0 0 q2 -5 50 -24 q2 -2 25 -12 q1 -2 3 -2 q-1 -3 -1 -4 l-2 0 q-43 15 -81 32 l-1 0 l-21 -26 q-1 -1 -3 -1 l-1 0 l0 2 q0 2 16 28 q1 1 1 2 l0 0 q-17 14 -18 15 q-9 10 -9 14 q0 3 4 4 q4 0 27 -22 l3 0 q7 8 13 27 q1 3 1 6 l0 -1 q-4 0 -32 -10 l-2 0 q-1 0 -2 2 l0 2 q4 7 40 21 Z" /><glyph glyph-name="" unicode="&#x8bc4;" d="M208 185 q4 0 6 -5 l-19 -5 q-7 -6 -48 -12 q-17 -3 -19 -3 l-2 0 q-5 0 -5 4 q0 6 35 9 q31 9 52 12 ZM56 158 q4 -2 26 -20 q16 -13 24 -20 q1 -3 2 -3 q-1 -2 -1 -4 l-1 0 q-3 0 -20 15 q-25 14 -32 24 q-1 0 -2 3 q0 3 4 5 ZM174 154 l2 0 q4 -3 4 -8 l0 -9 q0 -8 -1 -32 l-1 0 q24 26 35 45 q3 3 6 3 l2 0 l1 -4 q-6 -15 -29 -41 q-14 -9 -14 -15 l0 -4 q0 0 0 0 q45 12 51 13 q1 -1 3 -1 l0 -4 q-8 -3 -34 -10 q-19 -6 -19 -8 q-1 -17 -1 -42 l0 -57 q0 -6 1 -11 l-2 -4 q-6 0 -6 45 q-1 45 -3 67 q-4 0 -51 -13 q-3 0 -4 4 q0 5 50 18 q5 2 5 10 l0 28 q0 30 5 30 ZM136 149 q9 0 12 -27 q0 0 2 -6 q0 -2 0 -3 l-3 0 q-11 11 -14 32 l0 1 q0 1 3 3 ZM75 96 q9 0 9 -13 q0 -5 -2 -36 l0 -5 l0 0 q2 2 26 32 l11 12 l3 0 l0 -2 q0 -3 -17 -23 q-9 -11 -21 -42 q-6 -6 -8 -6 l-3 0 q-4 3 -4 8 q2 14 2 41 l0 6 q0 13 -1 13 l-1 0 q-16 -4 -34 -14 q-6 -1 -9 -1 q-4 0 -4 2 q0 7 21 14 q12 10 32 14 Z" /><glyph glyph-name="" unicode="&#x8bfb;" d="M140 195 q6 0 7 -19 q0 -7 0 -13 l0 -2 q0 0 0 0 l2 0 q11 3 11 4 q2 -1 4 -1 l0 -4 q-8 -4 -16 -7 q-2 -5 -5 -19 l-2 -2 l-1 0 q-3 0 -5 14 l-1 1 q-1 0 -32 -10 q-3 1 -5 4 q0 5 36 16 q2 3 2 6 q0 2 0 24 q0 6 5 8 ZM212 152 q9 -1 9 -7 q0 -7 -19 -25 q-7 -8 -19 -23 l-2 -2 l-1 0 q-2 0 -2 3 q7 13 20 31 q6 9 6 11 q0 0 0 0 l-1 0 q-19 0 -90 -30 q-7 -2 -9 -2 q-4 1 -4 4 q0 5 37 17 q63 23 75 23 ZM33 149 q23 -6 23 -15 q13 -15 14 -20 q-2 0 -2 -1 q-4 0 -17 14 q-15 8 -20 17 q-1 0 -1 3 l0 0 q0 2 3 2 ZM153 120 q5 0 5 -6 q0 -20 -16 -68 l0 0 l-1 0 l58 17 l3 -2 q0 -4 -22 -12 q-6 -4 -36 -13 q-6 -2 -10 -14 q-14 -37 -34 -58 q-2 -1 -5 -1 l-1 0 l0 2 q0 2 10 17 q24 41 24 47 l0 0 q-2 0 -39 -13 q-1 0 -4 3 q0 5 36 17 q12 5 12 12 q3 9 3 10 l0 1 l0 0 q-46 -17 -52 -17 q-1 0 -4 3 q0 8 55 21 q6 0 8 14 q5 30 7 39 q2 0 3 1 ZM112 86 q17 -3 17 -7 l0 -1 q0 -4 -14 -6 l-20 0 q-10 1 -10 4 l0 2 q0 5 27 8 ZM47 77 q7 0 9 -11 l0 -8 q-7 -49 -7 -51 l-1 0 q4 4 10 22 q2 1 16 28 q4 3 6 3 q0 -1 2 -1 q-20 -40 -20 -45 q-6 -14 -11 -41 q-4 -5 -7 -5 l-1 0 q-7 0 -7 6 q8 45 8 71 q0 8 -2 17 q-1 0 -17 -14 q-4 -4 -7 -4 l-1 0 q-1 0 -2 3 l0 1 q0 5 23 26 q6 3 9 3 ZM156 33 q11 -4 25 -26 q22 -26 46 -40 q11 -4 14 -11 l-2 -1 l-1 0 q-34 15 -53 32 q-27 26 -32 40 l0 2 q0 1 3 4 Z" /><glyph glyph-name="" unicode="&#x8fbe;" d="M139 162 l1 0 q3 0 4 -5 l-7 -34 l-1 0 q17 4 51 22 l2 0 l1 -2 l0 -2 q-5 -7 -41 -22 q-17 -3 -17 -16 q-9 -29 -20 -48 q-2 -8 -5 -8 l0 0 q-3 0 -3 3 q8 24 15 44 q3 8 4 16 l1 0 q-11 -3 -27 -11 q-3 -1 -5 -1 q-2 0 -3 2 l0 2 q0 5 35 17 q2 0 7 27 q5 16 8 16 ZM42 161 q10 0 17 -27 q-1 -3 -2 -3 q-7 4 -17 22 q0 1 -1 4 q0 1 3 4 ZM32 106 q19 0 19 -19 l0 -2 l-2 -21 q4 -36 7 -36 q29 -6 121 -20 q31 -6 70 -15 l0 -2 q0 -2 -4 -3 l-112 20 q-43 5 -74 10 l-4 0 q-4 -7 -6 -7 q-2 0 -4 9 q-2 1 -27 7 q-6 2 -8 6 q1 4 5 4 q26 -5 27 -5 l0 -1 q-3 19 -3 33 q1 16 1 23 q0 7 -18 10 q-1 2 -2 2 q2 7 14 7 ZM142 98 q5 0 35 -27 l29 -21 q1 -2 1 -3 l-2 -1 q-4 0 -41 24 q-24 20 -24 26 l0 2 q1 0 2 0 Z" /><glyph glyph-name="" unicode="&#x8fdc;" d="M167 165 q1 0 3 0 l0 -3 q0 -2 -14 -7 q-15 -8 -53 -18 q-3 0 -6 4 l0 0 q0 5 70 24 ZM44 150 q7 0 19 -37 l0 -1 l-4 0 q-1 0 -11 19 q-4 4 -8 14 q2 4 4 5 ZM184 142 q1 -1 2 -1 l0 -3 q0 -3 -48 -25 q-5 0 -11 -15 q-34 -53 -34 -63 l-4 0 l-1 4 l0 2 q0 10 33 65 l0 0 q-18 -9 -22 -9 l-2 2 l0 3 q7 6 38 19 q25 13 49 21 ZM160 116 q4 0 5 -5 q-15 -42 -15 -55 l0 -10 q4 -18 16 -18 l4 0 q14 0 35 28 q11 14 11 28 l0 3 q0 7 -14 8 q-4 0 -5 2 l0 2 q1 3 5 3 q24 0 24 -17 q0 -20 -30 -54 q-16 -15 -30 -15 l-1 0 q-23 0 -26 30 l0 1 q0 23 18 66 q3 2 3 3 ZM58 108 q8 0 9 -11 l0 -2 q-2 -24 -2 -48 q0 -13 9 -13 q30 -14 135 -36 q24 -6 27 -8 q0 -1 1 -1 q-1 -4 -5 -4 l-115 26 l-52 15 l-1 0 q0 0 -2 -14 q-2 -10 -2 -10 l0 -6 q0 -4 -2 -5 l-1 0 q-3 1 -3 5 l0 14 q0 6 1 14 q0 9 -8 9 q-21 9 -28 17 l0 2 q0 3 4 3 q4 0 32 -14 l0 0 l0 0 q-1 50 -4 52 l-9 -2 l-2 0 q-4 0 -5 2 l0 3 q11 12 23 12 Z" /><glyph glyph-name="" unicode="&#x90fd;" d="M90 190 q3 -4 3 -11 l0 -14 l1 -3 l1 0 q2 0 18 6 l4 0 q0 -1 0 -1 q0 -5 -20 -13 q-1 -2 -1 -4 q0 -4 1 -22 l1 0 q-1 -6 -3 -6 l-1 0 q-3 0 -9 20 q0 7 -1 7 l-3 0 q-1 0 -22 -6 q-4 1 -4 4 q0 5 26 11 l1 1 l0 13 q0 18 8 18 ZM196 136 q7 0 7 -10 q0 -3 -16 -27 q-1 0 -1 -1 l0 -1 q0 -1 26 -1 l4 0 q12 0 16 -9 q2 -6 2 -8 q-2 -12 -9 -19 q-29 -20 -49 -20 q-13 1 -13 5 q1 2 4 3 q4 -1 5 -1 l1 0 q11 0 37 15 q9 8 9 16 q0 5 -16 5 l-18 0 q-14 2 -14 10 l0 1 q2 6 15 26 q1 1 1 2 l0 0 q-24 -4 -24 -6 l0 0 q0 -2 2 -13 q0 -20 -3 -104 q0 -5 0 -33 q0 -2 -2 -6 q-5 1 -5 11 l0 25 q0 24 -1 65 q-1 0 -3 46 l0 6 l-5 5 q0 6 27 11 q17 6 23 7 ZM123 132 q0 -1 1 -1 q-2 -5 -20 -13 q-1 0 -29 -28 q-47 -46 -51 -46 l-1 0 q0 1 -1 1 q0 7 52 53 q1 2 1 2 q-24 -13 -31 -14 q-1 2 -1 3 q0 4 25 16 q28 15 32 22 q5 4 7 4 q2 0 3 -3 l0 0 q10 4 13 4 ZM119 98 q10 0 11 -12 l0 -2 q0 -5 -9 -37 l-1 0 q10 4 11 4 l2 0 q0 -2 1 -2 q0 -4 -11 -8 q-6 -1 -14 -21 l-3 -3 l-3 0 l0 2 l3 10 l0 0 q0 0 -17 -9 q-1 0 -3 -2 q-2 1 -3 1 l0 3 q9 10 24 18 q5 8 9 30 q1 2 1 5 l0 6 q0 3 -2 3 q-18 -2 -50 -25 l-1 -1 q3 -15 5 -38 q-1 -8 -4 -8 l0 0 q-4 0 -10 31 q0 9 -5 13 l0 2 q4 9 17 13 q43 26 52 27 ZM104 60 q8 -2 8 -6 q0 -5 -29 -13 q-5 1 -5 3 l0 2 q1 3 16 9 q0 3 10 5 Z" /><glyph glyph-name="" unicode="&#x91cc;" d="M183 162 q19 0 26 -13 q0 -3 0 -6 l0 -1 q0 -15 -23 -47 q-23 -33 -30 -40 l-3 0 q0 5 14 27 l0 0 l1 0 q-28 -7 -28 -9 q-1 -20 -2 -24 l0 0 q25 7 46 16 l4 0 q0 -1 1 -1 q0 -5 -50 -23 q-5 -7 -5 -27 q1 -3 1 -3 q52 6 74 6 l3 0 l4 -1 l0 -2 q0 -5 -43 -6 q-77 -10 -116 -19 q-7 -1 -13 -1 l-1 0 q-2 0 -3 4 q0 6 32 10 q23 4 55 9 l0 0 q0 2 1 12 q-1 9 -1 12 l1 0 q-3 0 -37 -11 l-1 0 q-1 0 -4 3 q0 6 36 16 q7 3 7 9 q1 9 1 16 l0 3 q0 0 -1 0 q-24 -4 -24 -9 q0 -2 -1 -4 q-6 0 -17 34 q0 1 -15 31 q0 2 -2 2 q2 6 6 6 q6 0 14 -25 q9 -33 12 -33 q28 5 28 12 l0 16 q0 0 -2 1 l-3 0 q-24 -7 -28 -7 q-2 1 -3 3 q0 6 35 15 q2 1 2 12 q0 4 -1 17 l-1 0 q-6 0 -32 -14 q-3 1 -3 4 q0 7 35 19 q2 6 6 6 q4 -2 5 -2 q30 7 43 7 ZM143 139 l0 -21 q0 -2 0 -2 q8 1 11 1 q20 -1 20 -5 q-3 -2 -23 -4 q-11 0 -11 -15 q0 -2 0 -8 q0 -1 1 -1 l31 7 q8 6 19 28 q5 11 5 21 l0 0 q0 12 -14 12 l-7 0 q-32 -2 -32 -8 q0 -3 0 -5 Z" /><glyph glyph-name="" unicode="&#x957f;" d="M107 180 q5 -2 5 -5 q-5 -18 -7 -53 q-1 -1 -3 -17 l0 -2 l0 0 q36 40 59 69 q3 4 6 4 q2 0 3 -3 q0 -5 -38 -47 q-1 -4 -28 -30 l-4 -5 l0 0 l0 0 q2 0 9 4 q3 0 56 19 q11 4 16 4 q0 -2 1 -2 q0 -5 -27 -12 q-31 -12 -34 -15 q0 -1 22 -24 q0 -1 21 -21 q27 -29 67 -71 l0 -3 q-6 0 -38 33 q-39 38 -61 58 q-5 -2 -25 -57 q-3 -8 -5 -18 q-3 -3 -7 -5 q-7 2 -7 7 q4 20 4 43 q0 44 -2 44 l-4 0 q-2 0 -57 -22 q-4 1 -4 3 l0 1 q2 6 65 29 l1 1 q0 0 0 2 l0 2 q4 16 9 70 q3 19 7 19 ZM100 16 q0 0 1 0 q2 1 26 50 q0 2 -18 18 q-9 0 -9 -9 l0 -59 Z" /><glyph glyph-name="" unicode="&#x9762;" d="M159 163 l3 -3 q0 -4 -18 -8 q-16 -7 -22 -15 q-4 -6 -41 -37 q-22 -17 -24 -17 l-2 2 q0 3 19 19 q37 33 37 34 q0 1 2 3 l0 0 l0 0 q-24 -8 -36 -8 q-8 0 -11 5 q0 5 30 9 q41 8 63 16 ZM182 119 l1 0 q30 0 30 -22 q1 0 2 -12 q0 -32 -22 -70 q-9 -10 -20 -27 q-1 0 -3 -1 l-1 2 l0 2 q32 53 32 65 q4 16 4 28 q-4 25 -19 25 l-6 0 q-29 0 -81 -19 l0 1 q6 0 6 -15 q1 -5 1 -5 q34 12 37 12 l4 0 q0 0 0 0 l0 14 q0 4 4 6 q8 0 9 -27 l0 -2 q0 -35 -4 -52 l0 -1 q0 -1 2 -2 q4 0 21 2 q3 0 5 -4 q-3 -3 -23 -5 q-6 -2 -9 -6 l-2 0 q-2 2 -3 2 q-31 -5 -61 -15 q-2 0 -4 4 q0 9 64 21 q1 2 2 2 q-1 10 -1 16 l0 6 q0 7 -1 7 l-2 0 q-12 -5 -33 -12 q0 -1 0 -1 l0 0 l0 -2 q0 -3 1 -9 q-1 -4 -3 -4 q-7 0 -9 24 q-2 9 -5 35 l0 4 q0 0 -1 0 q2 6 2 5 q-8 -2 -16 -5 q-1 0 -4 3 q0 8 49 20 q42 12 57 12 ZM45 91 q7 0 24 -50 q12 -25 12 -29 q-1 -1 -1 -3 l-3 0 q-11 7 -30 65 q-6 8 -6 13 q0 3 4 4 ZM107 60 q0 -9 3 -14 q16 7 37 11 q1 2 1 3 l0 14 q0 0 -1 0 l-1 0 q-5 -3 -32 -10 q-7 -3 -7 -4 Z" /><glyph glyph-name="" unicode="&#xff0c;" d="M52 37 q14 -5 15 -16 l1 0 q1 -21 -18 -46 q-7 -20 -13 -21 l0 3 q4 14 13 34 q5 22 4 26 l0 4 q0 2 -6 9 q0 3 4 7 Z" /><glyph glyph-name="" unicode="&#xff0f;" d="M175 152 q4 -1 4 -3 l0 -1 q0 -8 -18 -28 q-8 -15 -30 -45 q-10 -17 -33 -53 q-13 -21 -18 -25 l-2 0 l0 3 q17 35 38 65 q11 19 37 57 q13 30 22 30 Z" /><glyph glyph-name="" unicode="&#xff1a;" d="M51 119 q7 0 14 -11 l0 -1 q-4 -9 -9 -9 q-9 4 -9 12 l0 1 q0 6 4 8 ZM55 57 q8 0 10 -12 q-3 -7 -9 -7 q-7 0 -8 10 q0 9 7 9 Z" /><glyph glyph-name="" unicode="&#xff1f;" d="M91 168 q18 0 21 -27 q0 -2 1 -4 q-1 -27 -28 -78 q-4 -4 -8 -16 l-2 0 l-1 0 q-2 0 -2 2 l0 0 q0 13 20 51 q9 21 9 33 l0 6 q0 14 -10 19 l-7 0 q-18 -5 -31 -26 q-7 -8 -10 -29 l-3 -2 l-2 0 q-4 0 -5 13 l0 1 q0 13 27 41 q19 16 31 16 ZM81 16 q7 0 8 -9 q0 -13 -14 -19 q-7 0 -9 11 q0 4 6 7 q0 9 9 10 Z" /></font>
</defs>
</svg>
